<mxfile host="Electron" modified="2024-06-16T21:27:04.842Z" agent="Mozilla/5.0 (Windows NT 10.0; Win64; x64) AppleWebKit/537.36 (KHTML, like Gecko) draw.io/24.5.3 Chrome/124.0.6367.207 Electron/30.0.6 Safari/537.36" etag="iRpk8fNBGyiqDmlxL13H" version="24.5.3" type="device" pages="2">
  <diagram name="Page-1" id="KxFUunisI3KA-j2Cj4el">
    <mxGraphModel dx="1834" dy="2044" grid="1" gridSize="10" guides="1" tooltips="1" connect="1" arrows="1" fold="1" page="0" pageScale="1" pageWidth="850" pageHeight="1100" math="0" shadow="0">
      <root>
        <mxCell id="0" />
        <mxCell id="1" parent="0" />
        <mxCell id="E2yAKOlgApOKbNNjwcf9-30" value="Actor" style="shape=umlActor;verticalLabelPosition=bottom;verticalAlign=top;html=1;outlineConnect=0;" parent="1" vertex="1">
          <mxGeometry x="-13" y="-822" width="30" height="60" as="geometry" />
        </mxCell>
        <mxCell id="E2yAKOlgApOKbNNjwcf9-31" value="View" style="rounded=0;whiteSpace=wrap;html=1;" parent="1" vertex="1">
          <mxGeometry x="174" y="-822" width="120" height="60" as="geometry" />
        </mxCell>
        <mxCell id="E2yAKOlgApOKbNNjwcf9-32" value="Model" style="rounded=0;whiteSpace=wrap;html=1;" parent="1" vertex="1">
          <mxGeometry x="728" y="-820" width="120" height="60" as="geometry" />
        </mxCell>
        <mxCell id="E2yAKOlgApOKbNNjwcf9-33" value="Controller" style="rounded=0;whiteSpace=wrap;html=1;" parent="1" vertex="1">
          <mxGeometry x="451" y="-822" width="120" height="60" as="geometry" />
        </mxCell>
        <mxCell id="E2yAKOlgApOKbNNjwcf9-34" value="" style="endArrow=none;html=1;rounded=0;" parent="1" edge="1">
          <mxGeometry width="50" height="50" relative="1" as="geometry">
            <mxPoint x="2" y="2082" as="sourcePoint" />
            <mxPoint x="2" y="-734" as="targetPoint" />
          </mxGeometry>
        </mxCell>
        <mxCell id="E2yAKOlgApOKbNNjwcf9-38" value="" style="endArrow=classic;html=1;rounded=0;entryX=-0.107;entryY=0.097;entryDx=0;entryDy=0;entryPerimeter=0;" parent="1" target="E2yAKOlgApOKbNNjwcf9-58" edge="1">
          <mxGeometry width="50" height="50" relative="1" as="geometry">
            <mxPoint x="2" y="-427" as="sourcePoint" />
            <mxPoint x="208" y="-427" as="targetPoint" />
          </mxGeometry>
        </mxCell>
        <mxCell id="E2yAKOlgApOKbNNjwcf9-39" value="Login" style="text;html=1;align=center;verticalAlign=middle;whiteSpace=wrap;rounded=0;" parent="1" vertex="1">
          <mxGeometry x="27" y="-451" width="162" height="30" as="geometry" />
        </mxCell>
        <mxCell id="E2yAKOlgApOKbNNjwcf9-45" value="" style="endArrow=none;html=1;rounded=0;startArrow=classic;startFill=1;endFill=0;entryX=0;entryY=0.75;entryDx=0;entryDy=0;exitX=1;exitY=0.621;exitDx=0;exitDy=0;exitPerimeter=0;dashed=1;" parent="1" edge="1">
          <mxGeometry width="50" height="50" relative="1" as="geometry">
            <mxPoint x="241" y="-283.0039999999999" as="sourcePoint" />
            <mxPoint x="504" y="-282.94000000000005" as="targetPoint" />
          </mxGeometry>
        </mxCell>
        <mxCell id="E2yAKOlgApOKbNNjwcf9-48" value="Get user from details" style="text;html=1;align=center;verticalAlign=middle;whiteSpace=wrap;rounded=0;" parent="1" vertex="1">
          <mxGeometry x="555" y="-428" width="205" height="30" as="geometry" />
        </mxCell>
        <mxCell id="E2yAKOlgApOKbNNjwcf9-49" value="" style="endArrow=classic;html=1;rounded=0;" parent="1" edge="1">
          <mxGeometry width="50" height="50" relative="1" as="geometry">
            <mxPoint x="521" y="-400" as="sourcePoint" />
            <mxPoint x="779" y="-400" as="targetPoint" />
          </mxGeometry>
        </mxCell>
        <mxCell id="E2yAKOlgApOKbNNjwcf9-50" value="" style="endArrow=none;html=1;rounded=0;startArrow=classic;startFill=1;endFill=0;entryX=0;entryY=0.709;entryDx=0;entryDy=0;entryPerimeter=0;dashed=1;" parent="1" edge="1">
          <mxGeometry width="50" height="50" relative="1" as="geometry">
            <mxPoint x="520" y="-372" as="sourcePoint" />
            <mxPoint x="780" y="-371.66099999999983" as="targetPoint" />
          </mxGeometry>
        </mxCell>
        <mxCell id="E2yAKOlgApOKbNNjwcf9-51" value="Return user with details if exists" style="text;html=1;align=center;verticalAlign=middle;whiteSpace=wrap;rounded=0;" parent="1" vertex="1">
          <mxGeometry x="559" y="-398" width="205" height="30" as="geometry" />
        </mxCell>
        <mxCell id="E2yAKOlgApOKbNNjwcf9-55" value="" style="endArrow=none;html=1;rounded=0;endFill=0;startArrow=classic;startFill=1;dashed=1;" parent="1" edge="1">
          <mxGeometry width="50" height="50" relative="1" as="geometry">
            <mxPoint x="2" y="-266" as="sourcePoint" />
            <mxPoint x="226" y="-265" as="targetPoint" />
          </mxGeometry>
        </mxCell>
        <mxCell id="E2yAKOlgApOKbNNjwcf9-56" value="" style="endArrow=none;html=1;rounded=0;startArrow=classic;startFill=1;endFill=0;dashed=1;" parent="1" edge="1">
          <mxGeometry width="50" height="50" relative="1" as="geometry">
            <mxPoint x="245" y="-361" as="sourcePoint" />
            <mxPoint x="504" y="-361" as="targetPoint" />
          </mxGeometry>
        </mxCell>
        <mxCell id="E2yAKOlgApOKbNNjwcf9-57" value="Return to login if user does not exist" style="text;html=1;align=center;verticalAlign=middle;whiteSpace=wrap;rounded=0;" parent="1" vertex="1">
          <mxGeometry x="297" y="-391" width="173" height="30" as="geometry" />
        </mxCell>
        <mxCell id="oqMJg_88ZmLt8PhcBd5t-3" value="Login User" style="text;html=1;align=center;verticalAlign=middle;whiteSpace=wrap;rounded=0;" parent="1" vertex="1">
          <mxGeometry x="555" y="-337" width="80" height="30" as="geometry" />
        </mxCell>
        <mxCell id="oqMJg_88ZmLt8PhcBd5t-7" value="Show user Login view" style="text;html=1;align=center;verticalAlign=middle;whiteSpace=wrap;rounded=0;" parent="1" vertex="1">
          <mxGeometry x="41" y="-372" width="162" height="30" as="geometry" />
        </mxCell>
        <mxCell id="oqMJg_88ZmLt8PhcBd5t-8" value="" style="endArrow=none;html=1;rounded=0;endFill=0;startArrow=classic;startFill=1;dashed=1;" parent="1" edge="1">
          <mxGeometry width="50" height="50" relative="1" as="geometry">
            <mxPoint x="3" y="-345" as="sourcePoint" />
            <mxPoint x="227" y="-344" as="targetPoint" />
          </mxGeometry>
        </mxCell>
        <mxCell id="oqMJg_88ZmLt8PhcBd5t-9" value="" style="endArrow=classic;html=1;rounded=0;entryX=-0.107;entryY=0.097;entryDx=0;entryDy=0;entryPerimeter=0;" parent="1" edge="1">
          <mxGeometry width="50" height="50" relative="1" as="geometry">
            <mxPoint x="3.25" y="-691" as="sourcePoint" />
            <mxPoint x="226.75199999999995" y="-691.018" as="targetPoint" />
          </mxGeometry>
        </mxCell>
        <mxCell id="oqMJg_88ZmLt8PhcBd5t-10" value="Register" style="text;html=1;align=center;verticalAlign=middle;whiteSpace=wrap;rounded=0;" parent="1" vertex="1">
          <mxGeometry x="32" y="-734" width="162" height="30" as="geometry" />
        </mxCell>
        <mxCell id="oqMJg_88ZmLt8PhcBd5t-11" value="Return All Tasks/ All Posts View" style="text;html=1;align=center;verticalAlign=middle;whiteSpace=wrap;rounded=0;" parent="1" vertex="1">
          <mxGeometry x="280" y="-573" width="190" height="30" as="geometry" />
        </mxCell>
        <mxCell id="oqMJg_88ZmLt8PhcBd5t-12" value="" style="endArrow=none;html=1;rounded=0;startArrow=classic;startFill=1;endFill=0;entryX=0;entryY=0.75;entryDx=0;entryDy=0;exitX=1;exitY=0.621;exitDx=0;exitDy=0;exitPerimeter=0;dashed=1;" parent="1" edge="1">
          <mxGeometry width="50" height="50" relative="1" as="geometry">
            <mxPoint x="244" y="-540.0039999999999" as="sourcePoint" />
            <mxPoint x="507" y="-539.94" as="targetPoint" />
          </mxGeometry>
        </mxCell>
        <mxCell id="oqMJg_88ZmLt8PhcBd5t-13" value="Create user" style="text;html=1;align=center;verticalAlign=middle;whiteSpace=wrap;rounded=0;" parent="1" vertex="1">
          <mxGeometry x="558" y="-667" width="205" height="30" as="geometry" />
        </mxCell>
        <mxCell id="oqMJg_88ZmLt8PhcBd5t-14" value="" style="endArrow=classic;html=1;rounded=0;" parent="1" edge="1">
          <mxGeometry width="50" height="50" relative="1" as="geometry">
            <mxPoint x="524" y="-641" as="sourcePoint" />
            <mxPoint x="782" y="-641" as="targetPoint" />
          </mxGeometry>
        </mxCell>
        <mxCell id="oqMJg_88ZmLt8PhcBd5t-18" value="" style="endArrow=none;html=1;rounded=0;endFill=0;startArrow=classic;startFill=1;dashed=1;" parent="1" edge="1">
          <mxGeometry width="50" height="50" relative="1" as="geometry">
            <mxPoint x="5" y="-523" as="sourcePoint" />
            <mxPoint x="229" y="-522" as="targetPoint" />
          </mxGeometry>
        </mxCell>
        <mxCell id="oqMJg_88ZmLt8PhcBd5t-24" value="" style="endArrow=classic;html=1;rounded=0;exitX=1;exitY=0.5;exitDx=0;exitDy=0;entryX=1;entryY=0.698;entryDx=0;entryDy=0;entryPerimeter=0;" parent="1" edge="1">
          <mxGeometry width="50" height="50" relative="1" as="geometry">
            <mxPoint x="521" y="-614.875" as="sourcePoint" />
            <mxPoint x="521" y="-583.9375" as="targetPoint" />
            <Array as="points">
              <mxPoint x="559" y="-615" />
              <mxPoint x="559" y="-584" />
            </Array>
          </mxGeometry>
        </mxCell>
        <mxCell id="oqMJg_88ZmLt8PhcBd5t-25" value="Login User" style="text;html=1;align=center;verticalAlign=middle;whiteSpace=wrap;rounded=0;" parent="1" vertex="1">
          <mxGeometry x="558" y="-614" width="80" height="30" as="geometry" />
        </mxCell>
        <mxCell id="oqMJg_88ZmLt8PhcBd5t-28" value="Send Login Details" style="text;html=1;align=center;verticalAlign=middle;whiteSpace=wrap;rounded=0;" parent="1" vertex="1">
          <mxGeometry x="294" y="-441" width="162" height="30" as="geometry" />
        </mxCell>
        <mxCell id="oqMJg_88ZmLt8PhcBd5t-29" value="" style="endArrow=classic;html=1;rounded=0;entryX=0;entryY=0.136;entryDx=0;entryDy=0;entryPerimeter=0;" parent="1" target="E2yAKOlgApOKbNNjwcf9-60" edge="1">
          <mxGeometry width="50" height="50" relative="1" as="geometry">
            <mxPoint x="242" y="-413.03" as="sourcePoint" />
            <mxPoint x="498.00199999999995" y="-414.99875" as="targetPoint" />
          </mxGeometry>
        </mxCell>
        <mxCell id="oqMJg_88ZmLt8PhcBd5t-30" value="Send Register Details" style="text;html=1;align=center;verticalAlign=middle;whiteSpace=wrap;rounded=0;" parent="1" vertex="1">
          <mxGeometry x="297.5" y="-696" width="162" height="30" as="geometry" />
        </mxCell>
        <mxCell id="oqMJg_88ZmLt8PhcBd5t-31" value="" style="endArrow=classic;html=1;rounded=0;entryX=0;entryY=0.136;entryDx=0;entryDy=0;entryPerimeter=0;exitX=1;exitY=0.16;exitDx=0;exitDy=0;exitPerimeter=0;" parent="1" source="oqMJg_88ZmLt8PhcBd5t-21" edge="1">
          <mxGeometry width="50" height="50" relative="1" as="geometry">
            <mxPoint x="245.5" y="-669.03" as="sourcePoint" />
            <mxPoint x="507.5" y="-669" as="targetPoint" />
          </mxGeometry>
        </mxCell>
        <mxCell id="oqMJg_88ZmLt8PhcBd5t-34" value="" style="endArrow=classic;html=1;rounded=0;entryX=-0.107;entryY=0.097;entryDx=0;entryDy=0;entryPerimeter=0;" parent="1" edge="1">
          <mxGeometry width="50" height="50" relative="1" as="geometry">
            <mxPoint x="1.25" y="176" as="sourcePoint" />
            <mxPoint x="224.75199999999995" y="175.98199999999997" as="targetPoint" />
          </mxGeometry>
        </mxCell>
        <mxCell id="oqMJg_88ZmLt8PhcBd5t-35" value="View Task" style="text;html=1;align=center;verticalAlign=middle;whiteSpace=wrap;rounded=0;" parent="1" vertex="1">
          <mxGeometry x="26.25" y="152" width="162" height="30" as="geometry" />
        </mxCell>
        <mxCell id="oqMJg_88ZmLt8PhcBd5t-38" value="Load task" style="text;html=1;align=center;verticalAlign=middle;whiteSpace=wrap;rounded=0;" parent="1" vertex="1">
          <mxGeometry x="554" y="171" width="205" height="30" as="geometry" />
        </mxCell>
        <mxCell id="oqMJg_88ZmLt8PhcBd5t-39" value="" style="endArrow=classic;html=1;rounded=0;entryX=-0.05;entryY=0.414;entryDx=0;entryDy=0;entryPerimeter=0;" parent="1" target="oqMJg_88ZmLt8PhcBd5t-46" edge="1">
          <mxGeometry width="50" height="50" relative="1" as="geometry">
            <mxPoint x="520" y="199" as="sourcePoint" />
            <mxPoint x="778" y="199" as="targetPoint" />
          </mxGeometry>
        </mxCell>
        <mxCell id="oqMJg_88ZmLt8PhcBd5t-42" value="" style="endArrow=none;html=1;rounded=0;startArrow=classic;startFill=1;endFill=0;dashed=1;entryX=0.102;entryY=0.466;entryDx=0;entryDy=0;entryPerimeter=0;" parent="1" edge="1">
          <mxGeometry width="50" height="50" relative="1" as="geometry">
            <mxPoint x="241" y="247.20592000000033" as="sourcePoint" />
            <mxPoint x="508.4280000000001" y="247.20592000000033" as="targetPoint" />
          </mxGeometry>
        </mxCell>
        <mxCell id="oqMJg_88ZmLt8PhcBd5t-49" value="Show Task" style="text;html=1;align=center;verticalAlign=middle;whiteSpace=wrap;rounded=0;" parent="1" vertex="1">
          <mxGeometry x="40" y="238" width="162" height="30" as="geometry" />
        </mxCell>
        <mxCell id="oqMJg_88ZmLt8PhcBd5t-50" value="" style="endArrow=none;html=1;rounded=0;endFill=0;startArrow=classic;startFill=1;dashed=1;" parent="1" edge="1">
          <mxGeometry width="50" height="50" relative="1" as="geometry">
            <mxPoint x="2" y="265" as="sourcePoint" />
            <mxPoint x="226" y="266" as="targetPoint" />
          </mxGeometry>
        </mxCell>
        <mxCell id="oqMJg_88ZmLt8PhcBd5t-51" value="Send View Request" style="text;html=1;align=center;verticalAlign=middle;whiteSpace=wrap;rounded=0;" parent="1" vertex="1">
          <mxGeometry x="293.5" y="163" width="162" height="30" as="geometry" />
        </mxCell>
        <mxCell id="oqMJg_88ZmLt8PhcBd5t-52" value="" style="endArrow=classic;html=1;rounded=0;entryX=0.071;entryY=0.103;entryDx=0;entryDy=0;entryPerimeter=0;" parent="1" edge="1">
          <mxGeometry width="50" height="50" relative="1" as="geometry">
            <mxPoint x="240.5" y="184.67736000000036" as="sourcePoint" />
            <mxPoint x="509.99400000000014" y="184.6773599999999" as="targetPoint" />
          </mxGeometry>
        </mxCell>
        <mxCell id="oqMJg_88ZmLt8PhcBd5t-56" value="" style="endArrow=classic;html=1;rounded=0;exitX=1;exitY=0.5;exitDx=0;exitDy=0;entryX=1;entryY=0.698;entryDx=0;entryDy=0;entryPerimeter=0;" parent="1" edge="1">
          <mxGeometry width="50" height="50" relative="1" as="geometry">
            <mxPoint x="519" y="-333" as="sourcePoint" />
            <mxPoint x="519" y="-302" as="targetPoint" />
            <Array as="points">
              <mxPoint x="557" y="-333" />
              <mxPoint x="557" y="-302" />
            </Array>
          </mxGeometry>
        </mxCell>
        <mxCell id="YU_ujFdnD5ucLBOE94MF-1" value="" style="endArrow=none;html=1;rounded=0;" parent="1" edge="1">
          <mxGeometry width="50" height="50" relative="1" as="geometry">
            <mxPoint x="232.37" y="-734" as="sourcePoint" />
            <mxPoint x="230" y="2081" as="targetPoint" />
          </mxGeometry>
        </mxCell>
        <mxCell id="oqMJg_88ZmLt8PhcBd5t-21" value="" style="rounded=0;whiteSpace=wrap;html=1;" parent="1" vertex="1">
          <mxGeometry x="226" y="-702" width="14" height="206" as="geometry" />
        </mxCell>
        <mxCell id="oqMJg_88ZmLt8PhcBd5t-44" value="" style="rounded=0;whiteSpace=wrap;html=1;" parent="1" vertex="1">
          <mxGeometry x="226" y="163" width="14" height="137" as="geometry" />
        </mxCell>
        <mxCell id="E2yAKOlgApOKbNNjwcf9-58" value="" style="rounded=0;whiteSpace=wrap;html=1;" parent="1" vertex="1">
          <mxGeometry x="227" y="-447" width="14" height="206" as="geometry" />
        </mxCell>
        <mxCell id="oqMJg_88ZmLt8PhcBd5t-22" value="" style="rounded=0;whiteSpace=wrap;html=1;" parent="1" vertex="1">
          <mxGeometry x="507" y="-687" width="14" height="156.25" as="geometry" />
        </mxCell>
        <mxCell id="E2yAKOlgApOKbNNjwcf9-60" value="" style="rounded=0;whiteSpace=wrap;html=1;" parent="1" vertex="1">
          <mxGeometry x="504" y="-435" width="14" height="161.25" as="geometry" />
        </mxCell>
        <mxCell id="oqMJg_88ZmLt8PhcBd5t-45" value="" style="rounded=0;whiteSpace=wrap;html=1;" parent="1" vertex="1">
          <mxGeometry x="510" y="174.88" width="14" height="95.12" as="geometry" />
        </mxCell>
        <mxCell id="YU_ujFdnD5ucLBOE94MF-4" value="" style="endArrow=none;html=1;rounded=0;" parent="1" edge="1">
          <mxGeometry width="50" height="50" relative="1" as="geometry">
            <mxPoint x="789.5" y="-734" as="sourcePoint" />
            <mxPoint x="790" y="2070" as="targetPoint" />
          </mxGeometry>
        </mxCell>
        <mxCell id="oqMJg_88ZmLt8PhcBd5t-23" value="" style="rounded=0;whiteSpace=wrap;html=1;" parent="1" vertex="1">
          <mxGeometry x="783" y="-656" width="14" height="42" as="geometry" />
        </mxCell>
        <mxCell id="E2yAKOlgApOKbNNjwcf9-64" value="" style="rounded=0;whiteSpace=wrap;html=1;" parent="1" vertex="1">
          <mxGeometry x="780" y="-417" width="14" height="71" as="geometry" />
        </mxCell>
        <mxCell id="oqMJg_88ZmLt8PhcBd5t-46" value="" style="rounded=0;whiteSpace=wrap;html=1;" parent="1" vertex="1">
          <mxGeometry x="784" y="182" width="14" height="42" as="geometry" />
        </mxCell>
        <mxCell id="YU_ujFdnD5ucLBOE94MF-5" value="" style="endArrow=classic;html=1;rounded=0;entryX=-0.107;entryY=0.097;entryDx=0;entryDy=0;entryPerimeter=0;" parent="1" edge="1">
          <mxGeometry width="50" height="50" relative="1" as="geometry">
            <mxPoint x="2.25" y="-172" as="sourcePoint" />
            <mxPoint x="225.75199999999995" y="-172.01800000000003" as="targetPoint" />
          </mxGeometry>
        </mxCell>
        <mxCell id="YU_ujFdnD5ucLBOE94MF-6" value="Make Task" style="text;html=1;align=center;verticalAlign=middle;whiteSpace=wrap;rounded=0;" parent="1" vertex="1">
          <mxGeometry x="27.25" y="-196" width="162" height="30" as="geometry" />
        </mxCell>
        <mxCell id="YU_ujFdnD5ucLBOE94MF-7" value="Return Back to Home" style="text;html=1;align=center;verticalAlign=middle;whiteSpace=wrap;rounded=0;" parent="1" vertex="1">
          <mxGeometry x="301.5" y="21" width="162" height="30" as="geometry" />
        </mxCell>
        <mxCell id="YU_ujFdnD5ucLBOE94MF-8" value="" style="endArrow=none;html=1;rounded=0;startArrow=classic;startFill=1;endFill=0;entryX=0.102;entryY=0.859;entryDx=0;entryDy=0;exitX=1;exitY=0.621;exitDx=0;exitDy=0;exitPerimeter=0;dashed=1;entryPerimeter=0;" parent="1" edge="1">
          <mxGeometry width="50" height="50" relative="1" as="geometry">
            <mxPoint x="241" y="52.996000000000095" as="sourcePoint" />
            <mxPoint x="512.4279999999999" y="52.09875000000011" as="targetPoint" />
          </mxGeometry>
        </mxCell>
        <mxCell id="YU_ujFdnD5ucLBOE94MF-9" value="Create Task" style="text;html=1;align=center;verticalAlign=middle;whiteSpace=wrap;rounded=0;" parent="1" vertex="1">
          <mxGeometry x="555" y="-172" width="205" height="30" as="geometry" />
        </mxCell>
        <mxCell id="YU_ujFdnD5ucLBOE94MF-10" value="" style="endArrow=classic;html=1;rounded=0;entryX=0.083;entryY=0.201;entryDx=0;entryDy=0;entryPerimeter=0;" parent="1" edge="1">
          <mxGeometry width="50" height="50" relative="1" as="geometry">
            <mxPoint x="521" y="-144" as="sourcePoint" />
            <mxPoint x="786.1620000000003" y="-143.71399999999994" as="targetPoint" />
          </mxGeometry>
        </mxCell>
        <mxCell id="YU_ujFdnD5ucLBOE94MF-11" value="Show Home Page" style="text;html=1;align=center;verticalAlign=middle;whiteSpace=wrap;rounded=0;" parent="1" vertex="1">
          <mxGeometry x="40" y="60" width="162" height="30" as="geometry" />
        </mxCell>
        <mxCell id="YU_ujFdnD5ucLBOE94MF-12" value="" style="endArrow=none;html=1;rounded=0;endFill=0;startArrow=classic;startFill=1;dashed=1;" parent="1" edge="1">
          <mxGeometry width="50" height="50" relative="1" as="geometry">
            <mxPoint y="88" as="sourcePoint" />
            <mxPoint x="226" y="88" as="targetPoint" />
          </mxGeometry>
        </mxCell>
        <mxCell id="YU_ujFdnD5ucLBOE94MF-13" value="" style="endArrow=none;html=1;rounded=0;startArrow=classic;startFill=1;endFill=0;dashed=1;entryX=-0.1;entryY=0.285;entryDx=0;entryDy=0;entryPerimeter=0;" parent="1" edge="1">
          <mxGeometry width="50" height="50" relative="1" as="geometry">
            <mxPoint x="245" y="-112" as="sourcePoint" />
            <mxPoint x="509.5999999999999" y="-111.13079999999968" as="targetPoint" />
          </mxGeometry>
        </mxCell>
        <mxCell id="YU_ujFdnD5ucLBOE94MF-16" value="" style="endArrow=none;html=1;rounded=0;endFill=0;startArrow=classic;startFill=1;dashed=1;" parent="1" edge="1">
          <mxGeometry width="50" height="50" relative="1" as="geometry">
            <mxPoint x="3" y="-83" as="sourcePoint" />
            <mxPoint x="227" y="-82" as="targetPoint" />
          </mxGeometry>
        </mxCell>
        <mxCell id="YU_ujFdnD5ucLBOE94MF-17" value="Send Task Data" style="text;html=1;align=center;verticalAlign=middle;whiteSpace=wrap;rounded=0;" parent="1" vertex="1">
          <mxGeometry x="294.5" y="-185" width="162" height="30" as="geometry" />
        </mxCell>
        <mxCell id="YU_ujFdnD5ucLBOE94MF-18" value="" style="endArrow=classic;html=1;rounded=0;" parent="1" edge="1">
          <mxGeometry width="50" height="50" relative="1" as="geometry">
            <mxPoint x="242.5" y="-157.02999999999997" as="sourcePoint" />
            <mxPoint x="511" y="-157" as="targetPoint" />
          </mxGeometry>
        </mxCell>
        <mxCell id="YU_ujFdnD5ucLBOE94MF-19" value="" style="endArrow=none;html=1;rounded=0;" parent="1" edge="1">
          <mxGeometry width="50" height="50" relative="1" as="geometry">
            <mxPoint x="511.35284373274453" y="62.25" as="sourcePoint" />
            <mxPoint x="511" y="65.76641094866454" as="targetPoint" />
          </mxGeometry>
        </mxCell>
        <mxCell id="YU_ujFdnD5ucLBOE94MF-20" value="" style="rounded=0;whiteSpace=wrap;html=1;" parent="1" vertex="1">
          <mxGeometry x="227" y="-185" width="14" height="305" as="geometry" />
        </mxCell>
        <mxCell id="YU_ujFdnD5ucLBOE94MF-21" value="" style="rounded=0;whiteSpace=wrap;html=1;" parent="1" vertex="1">
          <mxGeometry x="511" y="-173.12" width="14" height="263.12" as="geometry" />
        </mxCell>
        <mxCell id="YU_ujFdnD5ucLBOE94MF-22" value="" style="rounded=0;whiteSpace=wrap;html=1;" parent="1" vertex="1">
          <mxGeometry x="785" y="-166" width="14" height="86" as="geometry" />
        </mxCell>
        <mxCell id="YU_ujFdnD5ucLBOE94MF-23" value="Return All Tasks/ All Posts View" style="text;html=1;align=center;verticalAlign=middle;whiteSpace=wrap;rounded=0;" parent="1" vertex="1">
          <mxGeometry x="280.5" y="-323" width="190" height="30" as="geometry" />
        </mxCell>
        <mxCell id="YU_ujFdnD5ucLBOE94MF-24" value="Show All Tasks/ All Posts View" style="text;html=1;align=center;verticalAlign=middle;whiteSpace=wrap;rounded=0;" parent="1" vertex="1">
          <mxGeometry x="25" y="-560.75" width="190" height="30" as="geometry" />
        </mxCell>
        <mxCell id="YU_ujFdnD5ucLBOE94MF-25" value="Show All Tasks/ All Posts View" style="text;html=1;align=center;verticalAlign=middle;whiteSpace=wrap;rounded=0;" parent="1" vertex="1">
          <mxGeometry x="26" y="-303.75" width="190" height="30" as="geometry" />
        </mxCell>
        <mxCell id="YU_ujFdnD5ucLBOE94MF-28" value="Return confirmation for Task Creation" style="text;html=1;align=center;verticalAlign=middle;whiteSpace=wrap;rounded=0;" parent="1" vertex="1">
          <mxGeometry x="280" y="-136" width="205" height="30" as="geometry" />
        </mxCell>
        <mxCell id="YU_ujFdnD5ucLBOE94MF-30" value="Show&amp;nbsp;&lt;span style=&quot;background-color: initial;&quot;&gt;confirmation for Task Creation&lt;/span&gt;" style="text;html=1;align=center;verticalAlign=middle;whiteSpace=wrap;rounded=0;" parent="1" vertex="1">
          <mxGeometry x="10" y="-110" width="205" height="30" as="geometry" />
        </mxCell>
        <mxCell id="YU_ujFdnD5ucLBOE94MF-32" value="" style="endArrow=classic;html=1;rounded=0;entryX=-0.107;entryY=0.097;entryDx=0;entryDy=0;entryPerimeter=0;" parent="1" edge="1">
          <mxGeometry width="50" height="50" relative="1" as="geometry">
            <mxPoint x="3.5" y="-46" as="sourcePoint" />
            <mxPoint x="227.00199999999995" y="-46.01800000000003" as="targetPoint" />
          </mxGeometry>
        </mxCell>
        <mxCell id="YU_ujFdnD5ucLBOE94MF-33" value="Back to Home" style="text;html=1;align=center;verticalAlign=middle;whiteSpace=wrap;rounded=0;" parent="1" vertex="1">
          <mxGeometry x="28.5" y="-70" width="162" height="30" as="geometry" />
        </mxCell>
        <mxCell id="YU_ujFdnD5ucLBOE94MF-34" value="" style="endArrow=classic;html=1;rounded=0;entryX=-0.131;entryY=0.533;entryDx=0;entryDy=0;entryPerimeter=0;exitX=1;exitY=0.5;exitDx=0;exitDy=0;" parent="1" source="YU_ujFdnD5ucLBOE94MF-20" target="YU_ujFdnD5ucLBOE94MF-21" edge="1">
          <mxGeometry width="50" height="50" relative="1" as="geometry">
            <mxPoint x="270.75" y="-32.56" as="sourcePoint" />
            <mxPoint x="494.25199999999995" y="-32.57800000000003" as="targetPoint" />
          </mxGeometry>
        </mxCell>
        <mxCell id="YU_ujFdnD5ucLBOE94MF-35" value="Back to Home&amp;nbsp;Request" style="text;html=1;align=center;verticalAlign=middle;whiteSpace=wrap;rounded=0;" parent="1" vertex="1">
          <mxGeometry x="295.75" y="-56.56" width="162" height="30" as="geometry" />
        </mxCell>
        <mxCell id="YU_ujFdnD5ucLBOE94MF-36" value="" style="endArrow=classic;html=1;rounded=0;exitX=0.986;exitY=0.65;exitDx=0;exitDy=0;exitPerimeter=0;" parent="1" source="YU_ujFdnD5ucLBOE94MF-21" edge="1">
          <mxGeometry width="50" height="50" relative="1" as="geometry">
            <mxPoint x="530" y="-2" as="sourcePoint" />
            <mxPoint x="785" y="-2" as="targetPoint" />
          </mxGeometry>
        </mxCell>
        <mxCell id="YU_ujFdnD5ucLBOE94MF-37" value="Back to Home Page" style="text;html=1;align=center;verticalAlign=middle;whiteSpace=wrap;rounded=0;" parent="1" vertex="1">
          <mxGeometry x="578.25" y="-26.560000000000002" width="162" height="30" as="geometry" />
        </mxCell>
        <mxCell id="YU_ujFdnD5ucLBOE94MF-40" value="" style="rounded=0;whiteSpace=wrap;html=1;" parent="1" vertex="1">
          <mxGeometry x="785" y="-26" width="14" height="86" as="geometry" />
        </mxCell>
        <mxCell id="YU_ujFdnD5ucLBOE94MF-41" value="Return Task" style="text;html=1;align=center;verticalAlign=middle;whiteSpace=wrap;rounded=0;" parent="1" vertex="1">
          <mxGeometry x="297.5" y="217" width="162" height="30" as="geometry" />
        </mxCell>
        <mxCell id="HSvyB0KYnUH7sIZ-QlM--1" value="" style="endArrow=classic;html=1;rounded=0;entryX=-0.107;entryY=0.097;entryDx=0;entryDy=0;entryPerimeter=0;" parent="1" edge="1">
          <mxGeometry width="50" height="50" relative="1" as="geometry">
            <mxPoint x="2.25" y="365" as="sourcePoint" />
            <mxPoint x="225.75199999999995" y="364.98199999999997" as="targetPoint" />
          </mxGeometry>
        </mxCell>
        <mxCell id="HSvyB0KYnUH7sIZ-QlM--2" value="Update Task" style="text;html=1;align=center;verticalAlign=middle;whiteSpace=wrap;rounded=0;" parent="1" vertex="1">
          <mxGeometry x="27.25" y="341" width="162" height="30" as="geometry" />
        </mxCell>
        <mxCell id="HSvyB0KYnUH7sIZ-QlM--3" value="Load task in the Update Page" style="text;html=1;align=center;verticalAlign=middle;whiteSpace=wrap;rounded=0;" parent="1" vertex="1">
          <mxGeometry x="555" y="360" width="205" height="30" as="geometry" />
        </mxCell>
        <mxCell id="HSvyB0KYnUH7sIZ-QlM--4" value="" style="endArrow=classic;html=1;rounded=0;entryX=-0.05;entryY=0.414;entryDx=0;entryDy=0;entryPerimeter=0;" parent="1" edge="1">
          <mxGeometry width="50" height="50" relative="1" as="geometry">
            <mxPoint x="521" y="382.84600000000046" as="sourcePoint" />
            <mxPoint x="784.3000000000002" y="382.846" as="targetPoint" />
          </mxGeometry>
        </mxCell>
        <mxCell id="HSvyB0KYnUH7sIZ-QlM--5" value="" style="endArrow=none;html=1;rounded=0;startArrow=classic;startFill=1;endFill=0;dashed=1;entryX=0.102;entryY=0.466;entryDx=0;entryDy=0;entryPerimeter=0;" parent="1" edge="1">
          <mxGeometry width="50" height="50" relative="1" as="geometry">
            <mxPoint x="242" y="429.20592000000033" as="sourcePoint" />
            <mxPoint x="509.4280000000001" y="429.20592000000033" as="targetPoint" />
          </mxGeometry>
        </mxCell>
        <mxCell id="HSvyB0KYnUH7sIZ-QlM--6" value="Show Task in the Update Page" style="text;html=1;align=center;verticalAlign=middle;whiteSpace=wrap;rounded=0;" parent="1" vertex="1">
          <mxGeometry x="20" y="427" width="183" height="30" as="geometry" />
        </mxCell>
        <mxCell id="HSvyB0KYnUH7sIZ-QlM--7" value="" style="endArrow=none;html=1;rounded=0;endFill=0;startArrow=classic;startFill=1;dashed=1;" parent="1" edge="1">
          <mxGeometry width="50" height="50" relative="1" as="geometry">
            <mxPoint x="3" y="454" as="sourcePoint" />
            <mxPoint x="227" y="455" as="targetPoint" />
          </mxGeometry>
        </mxCell>
        <mxCell id="HSvyB0KYnUH7sIZ-QlM--8" value="Send Update Request" style="text;html=1;align=center;verticalAlign=middle;whiteSpace=wrap;rounded=0;" parent="1" vertex="1">
          <mxGeometry x="294.5" y="352" width="162" height="30" as="geometry" />
        </mxCell>
        <mxCell id="HSvyB0KYnUH7sIZ-QlM--9" value="" style="endArrow=classic;html=1;rounded=0;entryX=0.071;entryY=0.103;entryDx=0;entryDy=0;entryPerimeter=0;" parent="1" edge="1">
          <mxGeometry width="50" height="50" relative="1" as="geometry">
            <mxPoint x="241.5" y="373.67736000000036" as="sourcePoint" />
            <mxPoint x="510.99400000000014" y="373.6773599999999" as="targetPoint" />
          </mxGeometry>
        </mxCell>
        <mxCell id="HSvyB0KYnUH7sIZ-QlM--10" value="" style="rounded=0;whiteSpace=wrap;html=1;" parent="1" vertex="1">
          <mxGeometry x="227" y="352" width="14" height="228" as="geometry" />
        </mxCell>
        <mxCell id="HSvyB0KYnUH7sIZ-QlM--12" value="" style="rounded=0;whiteSpace=wrap;html=1;" parent="1" vertex="1">
          <mxGeometry x="785" y="371" width="14" height="89" as="geometry" />
        </mxCell>
        <mxCell id="HSvyB0KYnUH7sIZ-QlM--13" value="Return Task In the Update Page" style="text;html=1;align=center;verticalAlign=middle;whiteSpace=wrap;rounded=0;" parent="1" vertex="1">
          <mxGeometry x="286.5" y="399" width="181.5" height="30" as="geometry" />
        </mxCell>
        <mxCell id="HSvyB0KYnUH7sIZ-QlM--14" value="" style="endArrow=classic;html=1;rounded=0;entryX=-0.107;entryY=0.097;entryDx=0;entryDy=0;entryPerimeter=0;" parent="1" edge="1">
          <mxGeometry width="50" height="50" relative="1" as="geometry">
            <mxPoint x="2.5" y="494" as="sourcePoint" />
            <mxPoint x="226.00199999999995" y="493.98199999999997" as="targetPoint" />
          </mxGeometry>
        </mxCell>
        <mxCell id="HSvyB0KYnUH7sIZ-QlM--15" value="Make changes and save" style="text;html=1;align=center;verticalAlign=middle;whiteSpace=wrap;rounded=0;" parent="1" vertex="1">
          <mxGeometry x="27.5" y="470" width="162" height="30" as="geometry" />
        </mxCell>
        <mxCell id="HSvyB0KYnUH7sIZ-QlM--16" value="Send Save Request" style="text;html=1;align=center;verticalAlign=middle;whiteSpace=wrap;rounded=0;" parent="1" vertex="1">
          <mxGeometry x="290.51" y="490" width="162" height="30" as="geometry" />
        </mxCell>
        <mxCell id="HSvyB0KYnUH7sIZ-QlM--17" value="" style="endArrow=classic;html=1;rounded=0;entryX=0.071;entryY=0.103;entryDx=0;entryDy=0;entryPerimeter=0;" parent="1" edge="1">
          <mxGeometry width="50" height="50" relative="1" as="geometry">
            <mxPoint x="240.51" y="511.67736000000036" as="sourcePoint" />
            <mxPoint x="510.00400000000013" y="511.6773599999999" as="targetPoint" />
          </mxGeometry>
        </mxCell>
        <mxCell id="HSvyB0KYnUH7sIZ-QlM--18" value="Save Task" style="text;html=1;align=center;verticalAlign=middle;whiteSpace=wrap;rounded=0;" parent="1" vertex="1">
          <mxGeometry x="562.85" y="510" width="205" height="30" as="geometry" />
        </mxCell>
        <mxCell id="HSvyB0KYnUH7sIZ-QlM--19" value="" style="endArrow=classic;html=1;rounded=0;entryX=-0.05;entryY=0.414;entryDx=0;entryDy=0;entryPerimeter=0;" parent="1" edge="1">
          <mxGeometry width="50" height="50" relative="1" as="geometry">
            <mxPoint x="522.85" y="532.8460000000005" as="sourcePoint" />
            <mxPoint x="786.1500000000002" y="532.846" as="targetPoint" />
          </mxGeometry>
        </mxCell>
        <mxCell id="HSvyB0KYnUH7sIZ-QlM--20" value="" style="rounded=0;whiteSpace=wrap;html=1;" parent="1" vertex="1">
          <mxGeometry x="785" y="480.5" width="14" height="89" as="geometry" />
        </mxCell>
        <mxCell id="HSvyB0KYnUH7sIZ-QlM--21" value="" style="endArrow=none;html=1;rounded=0;startArrow=classic;startFill=1;endFill=0;dashed=1;entryX=0.102;entryY=0.466;entryDx=0;entryDy=0;entryPerimeter=0;" parent="1" edge="1">
          <mxGeometry width="50" height="50" relative="1" as="geometry">
            <mxPoint x="241" y="550.2059200000003" as="sourcePoint" />
            <mxPoint x="508.4280000000001" y="550.2059200000003" as="targetPoint" />
          </mxGeometry>
        </mxCell>
        <mxCell id="HSvyB0KYnUH7sIZ-QlM--22" value="Redirect to the Home page" style="text;html=1;align=center;verticalAlign=middle;whiteSpace=wrap;rounded=0;" parent="1" vertex="1">
          <mxGeometry x="285.5" y="520" width="181.5" height="30" as="geometry" />
        </mxCell>
        <mxCell id="HSvyB0KYnUH7sIZ-QlM--23" value="Display Home Page" style="text;html=1;align=center;verticalAlign=middle;whiteSpace=wrap;rounded=0;" parent="1" vertex="1">
          <mxGeometry x="20" y="547" width="183" height="30" as="geometry" />
        </mxCell>
        <mxCell id="HSvyB0KYnUH7sIZ-QlM--24" value="" style="endArrow=none;html=1;rounded=0;endFill=0;startArrow=classic;startFill=1;dashed=1;" parent="1" edge="1">
          <mxGeometry width="50" height="50" relative="1" as="geometry">
            <mxPoint x="3" y="574" as="sourcePoint" />
            <mxPoint x="227" y="575" as="targetPoint" />
          </mxGeometry>
        </mxCell>
        <mxCell id="HSvyB0KYnUH7sIZ-QlM--11" value="" style="rounded=0;whiteSpace=wrap;html=1;" parent="1" vertex="1">
          <mxGeometry x="511" y="363.88" width="14" height="206.12" as="geometry" />
        </mxCell>
        <mxCell id="HSvyB0KYnUH7sIZ-QlM--25" value="" style="endArrow=classic;html=1;rounded=0;entryX=-0.107;entryY=0.097;entryDx=0;entryDy=0;entryPerimeter=0;" parent="1" edge="1">
          <mxGeometry width="50" height="50" relative="1" as="geometry">
            <mxPoint x="2.25" y="624" as="sourcePoint" />
            <mxPoint x="225.75199999999995" y="623.982" as="targetPoint" />
          </mxGeometry>
        </mxCell>
        <mxCell id="HSvyB0KYnUH7sIZ-QlM--26" value="Delete Task" style="text;html=1;align=center;verticalAlign=middle;whiteSpace=wrap;rounded=0;" parent="1" vertex="1">
          <mxGeometry x="27.25" y="600" width="162" height="30" as="geometry" />
        </mxCell>
        <mxCell id="HSvyB0KYnUH7sIZ-QlM--28" value="" style="endArrow=classic;html=1;rounded=0;entryX=-0.05;entryY=0.414;entryDx=0;entryDy=0;entryPerimeter=0;" parent="1" target="HSvyB0KYnUH7sIZ-QlM--36" edge="1">
          <mxGeometry width="50" height="50" relative="1" as="geometry">
            <mxPoint x="521" y="793.3879999999999" as="sourcePoint" />
            <mxPoint x="779" y="793.3879999999999" as="targetPoint" />
          </mxGeometry>
        </mxCell>
        <mxCell id="HSvyB0KYnUH7sIZ-QlM--29" value="" style="endArrow=none;html=1;rounded=0;startArrow=classic;startFill=1;endFill=0;dashed=1;entryX=0.102;entryY=0.466;entryDx=0;entryDy=0;entryPerimeter=0;" parent="1" edge="1">
          <mxGeometry width="50" height="50" relative="1" as="geometry">
            <mxPoint x="242" y="695.2059200000003" as="sourcePoint" />
            <mxPoint x="509.4280000000001" y="695.2059200000003" as="targetPoint" />
          </mxGeometry>
        </mxCell>
        <mxCell id="HSvyB0KYnUH7sIZ-QlM--30" value="Show deletion prompt" style="text;html=1;align=center;verticalAlign=middle;whiteSpace=wrap;rounded=0;" parent="1" vertex="1">
          <mxGeometry x="41" y="686" width="162" height="30" as="geometry" />
        </mxCell>
        <mxCell id="HSvyB0KYnUH7sIZ-QlM--31" value="" style="endArrow=none;html=1;rounded=0;endFill=0;startArrow=classic;startFill=1;dashed=1;" parent="1" edge="1">
          <mxGeometry width="50" height="50" relative="1" as="geometry">
            <mxPoint x="3" y="713" as="sourcePoint" />
            <mxPoint x="227" y="714" as="targetPoint" />
          </mxGeometry>
        </mxCell>
        <mxCell id="HSvyB0KYnUH7sIZ-QlM--32" value="Send Delete Request" style="text;html=1;align=center;verticalAlign=middle;whiteSpace=wrap;rounded=0;" parent="1" vertex="1">
          <mxGeometry x="294.5" y="611" width="162" height="30" as="geometry" />
        </mxCell>
        <mxCell id="HSvyB0KYnUH7sIZ-QlM--33" value="" style="endArrow=classic;html=1;rounded=0;entryX=0.071;entryY=0.103;entryDx=0;entryDy=0;entryPerimeter=0;" parent="1" edge="1">
          <mxGeometry width="50" height="50" relative="1" as="geometry">
            <mxPoint x="241.5" y="632.6773600000004" as="sourcePoint" />
            <mxPoint x="510.99400000000014" y="632.6773599999999" as="targetPoint" />
          </mxGeometry>
        </mxCell>
        <mxCell id="HSvyB0KYnUH7sIZ-QlM--34" value="" style="rounded=0;whiteSpace=wrap;html=1;" parent="1" vertex="1">
          <mxGeometry x="227" y="611" width="14" height="349" as="geometry" />
        </mxCell>
        <mxCell id="HSvyB0KYnUH7sIZ-QlM--35" value="" style="rounded=0;whiteSpace=wrap;html=1;" parent="1" vertex="1">
          <mxGeometry x="511" y="622.88" width="14" height="277.12" as="geometry" />
        </mxCell>
        <mxCell id="HSvyB0KYnUH7sIZ-QlM--36" value="" style="rounded=0;whiteSpace=wrap;html=1;" parent="1" vertex="1">
          <mxGeometry x="785" y="776" width="14" height="42" as="geometry" />
        </mxCell>
        <mxCell id="HSvyB0KYnUH7sIZ-QlM--37" value="Load deletion prompt" style="text;html=1;align=center;verticalAlign=middle;whiteSpace=wrap;rounded=0;" parent="1" vertex="1">
          <mxGeometry x="298.5" y="665" width="162" height="30" as="geometry" />
        </mxCell>
        <mxCell id="HSvyB0KYnUH7sIZ-QlM--38" value="Promt for deletion confirmation&amp;nbsp;" style="text;html=1;align=center;verticalAlign=middle;whiteSpace=wrap;rounded=0;" parent="1" vertex="1">
          <mxGeometry x="570" y="645" width="99" height="30" as="geometry" />
        </mxCell>
        <mxCell id="HSvyB0KYnUH7sIZ-QlM--39" value="" style="endArrow=classic;html=1;rounded=0;exitX=1;exitY=0.5;exitDx=0;exitDy=0;entryX=1;entryY=0.698;entryDx=0;entryDy=0;entryPerimeter=0;" parent="1" edge="1">
          <mxGeometry width="50" height="50" relative="1" as="geometry">
            <mxPoint x="525" y="645" as="sourcePoint" />
            <mxPoint x="525" y="676" as="targetPoint" />
            <Array as="points">
              <mxPoint x="563" y="645" />
              <mxPoint x="563" y="676" />
            </Array>
          </mxGeometry>
        </mxCell>
        <mxCell id="HSvyB0KYnUH7sIZ-QlM--40" value="" style="endArrow=classic;html=1;rounded=0;entryX=-0.107;entryY=0.097;entryDx=0;entryDy=0;entryPerimeter=0;" parent="1" edge="1">
          <mxGeometry width="50" height="50" relative="1" as="geometry">
            <mxPoint x="2.5" y="753" as="sourcePoint" />
            <mxPoint x="226.00199999999995" y="752.982" as="targetPoint" />
          </mxGeometry>
        </mxCell>
        <mxCell id="HSvyB0KYnUH7sIZ-QlM--41" value="Select &quot;Ok&quot;" style="text;html=1;align=center;verticalAlign=middle;whiteSpace=wrap;rounded=0;" parent="1" vertex="1">
          <mxGeometry x="27.5" y="729" width="162" height="30" as="geometry" />
        </mxCell>
        <mxCell id="HSvyB0KYnUH7sIZ-QlM--42" value="Confirm Delete Request" style="text;html=1;align=center;verticalAlign=middle;whiteSpace=wrap;rounded=0;" parent="1" vertex="1">
          <mxGeometry x="293.51" y="750" width="162" height="30" as="geometry" />
        </mxCell>
        <mxCell id="HSvyB0KYnUH7sIZ-QlM--43" value="" style="endArrow=classic;html=1;rounded=0;entryX=0.071;entryY=0.103;entryDx=0;entryDy=0;entryPerimeter=0;" parent="1" edge="1">
          <mxGeometry width="50" height="50" relative="1" as="geometry">
            <mxPoint x="240.51" y="771.6773600000004" as="sourcePoint" />
            <mxPoint x="510.00400000000013" y="771.6773599999999" as="targetPoint" />
          </mxGeometry>
        </mxCell>
        <mxCell id="HSvyB0KYnUH7sIZ-QlM--44" value="Delete Task" style="text;html=1;align=center;verticalAlign=middle;whiteSpace=wrap;rounded=0;" parent="1" vertex="1">
          <mxGeometry x="559" y="770" width="205" height="30" as="geometry" />
        </mxCell>
        <mxCell id="HSvyB0KYnUH7sIZ-QlM--45" value="" style="endArrow=none;html=1;rounded=0;startArrow=classic;startFill=1;endFill=0;dashed=1;entryX=0.102;entryY=0.466;entryDx=0;entryDy=0;entryPerimeter=0;" parent="1" edge="1">
          <mxGeometry width="50" height="50" relative="1" as="geometry">
            <mxPoint x="241.79" y="817.3059200000004" as="sourcePoint" />
            <mxPoint x="509.21800000000013" y="817.3059200000004" as="targetPoint" />
          </mxGeometry>
        </mxCell>
        <mxCell id="HSvyB0KYnUH7sIZ-QlM--46" value="Update Tasks list" style="text;html=1;align=center;verticalAlign=middle;whiteSpace=wrap;rounded=0;" parent="1" vertex="1">
          <mxGeometry x="298.29" y="787.1" width="162" height="30" as="geometry" />
        </mxCell>
        <mxCell id="HSvyB0KYnUH7sIZ-QlM--47" value="Show updated Tasks list" style="text;html=1;align=center;verticalAlign=middle;whiteSpace=wrap;rounded=0;" parent="1" vertex="1">
          <mxGeometry x="41" y="810" width="162" height="30" as="geometry" />
        </mxCell>
        <mxCell id="HSvyB0KYnUH7sIZ-QlM--48" value="" style="endArrow=none;html=1;rounded=0;endFill=0;startArrow=classic;startFill=1;dashed=1;" parent="1" edge="1">
          <mxGeometry width="50" height="50" relative="1" as="geometry">
            <mxPoint x="3" y="837" as="sourcePoint" />
            <mxPoint x="227" y="838" as="targetPoint" />
          </mxGeometry>
        </mxCell>
        <mxCell id="HSvyB0KYnUH7sIZ-QlM--49" value="" style="endArrow=classic;html=1;rounded=0;entryX=-0.107;entryY=0.097;entryDx=0;entryDy=0;entryPerimeter=0;" parent="1" edge="1">
          <mxGeometry width="50" height="50" relative="1" as="geometry">
            <mxPoint x="2.5" y="874" as="sourcePoint" />
            <mxPoint x="226.00199999999995" y="873.982" as="targetPoint" />
          </mxGeometry>
        </mxCell>
        <mxCell id="HSvyB0KYnUH7sIZ-QlM--50" value="Select &quot;Cancel&quot;" style="text;html=1;align=center;verticalAlign=middle;whiteSpace=wrap;rounded=0;" parent="1" vertex="1">
          <mxGeometry x="27.5" y="850" width="162" height="30" as="geometry" />
        </mxCell>
        <mxCell id="HSvyB0KYnUH7sIZ-QlM--51" value="No change required" style="text;html=1;align=center;verticalAlign=middle;whiteSpace=wrap;rounded=0;" parent="1" vertex="1">
          <mxGeometry x="286" y="900" width="99" height="30" as="geometry" />
        </mxCell>
        <mxCell id="HSvyB0KYnUH7sIZ-QlM--52" value="" style="endArrow=classic;html=1;rounded=0;exitX=1;exitY=0.5;exitDx=0;exitDy=0;entryX=1;entryY=0.698;entryDx=0;entryDy=0;entryPerimeter=0;" parent="1" edge="1">
          <mxGeometry width="50" height="50" relative="1" as="geometry">
            <mxPoint x="241" y="900" as="sourcePoint" />
            <mxPoint x="241" y="931" as="targetPoint" />
            <Array as="points">
              <mxPoint x="279" y="900" />
              <mxPoint x="279" y="931" />
            </Array>
          </mxGeometry>
        </mxCell>
        <mxCell id="HSvyB0KYnUH7sIZ-QlM--53" value="Show Tasks list" style="text;html=1;align=center;verticalAlign=middle;whiteSpace=wrap;rounded=0;" parent="1" vertex="1">
          <mxGeometry x="41" y="920" width="162" height="30" as="geometry" />
        </mxCell>
        <mxCell id="HSvyB0KYnUH7sIZ-QlM--54" value="" style="endArrow=none;html=1;rounded=0;endFill=0;startArrow=classic;startFill=1;dashed=1;" parent="1" edge="1">
          <mxGeometry width="50" height="50" relative="1" as="geometry">
            <mxPoint x="3" y="947" as="sourcePoint" />
            <mxPoint x="227" y="948" as="targetPoint" />
          </mxGeometry>
        </mxCell>
        <mxCell id="nPj8oF40pktkXe5stjNt-80" value="" style="endArrow=none;html=1;rounded=0;" edge="1" parent="1">
          <mxGeometry width="50" height="50" relative="1" as="geometry">
            <mxPoint x="513.37" y="-734" as="sourcePoint" />
            <mxPoint x="511" y="2080" as="targetPoint" />
          </mxGeometry>
        </mxCell>
        <mxCell id="EW-ovyUyHZ_5c20ek5Bu-1" value="" style="endArrow=none;html=1;rounded=0;" edge="1" parent="1" source="EW-ovyUyHZ_5c20ek5Bu-80">
          <mxGeometry width="50" height="50" relative="1" as="geometry">
            <mxPoint x="513.37" y="-734" as="sourcePoint" />
            <mxPoint x="513" y="2081" as="targetPoint" />
          </mxGeometry>
        </mxCell>
        <mxCell id="EW-ovyUyHZ_5c20ek5Bu-2" value="" style="endArrow=classic;html=1;rounded=0;entryX=-0.107;entryY=0.097;entryDx=0;entryDy=0;entryPerimeter=0;" edge="1" parent="1">
          <mxGeometry width="50" height="50" relative="1" as="geometry">
            <mxPoint x="1.25" y="1273" as="sourcePoint" />
            <mxPoint x="224.75199999999995" y="1272.982" as="targetPoint" />
          </mxGeometry>
        </mxCell>
        <mxCell id="EW-ovyUyHZ_5c20ek5Bu-3" value="View Post" style="text;html=1;align=center;verticalAlign=middle;whiteSpace=wrap;rounded=0;" vertex="1" parent="1">
          <mxGeometry x="26.25" y="1249" width="162" height="30" as="geometry" />
        </mxCell>
        <mxCell id="EW-ovyUyHZ_5c20ek5Bu-4" value="Load Post" style="text;html=1;align=center;verticalAlign=middle;whiteSpace=wrap;rounded=0;" vertex="1" parent="1">
          <mxGeometry x="554" y="1268" width="205" height="30" as="geometry" />
        </mxCell>
        <mxCell id="EW-ovyUyHZ_5c20ek5Bu-5" value="" style="endArrow=classic;html=1;rounded=0;entryX=-0.05;entryY=0.414;entryDx=0;entryDy=0;entryPerimeter=0;" edge="1" parent="1" target="EW-ovyUyHZ_5c20ek5Bu-13">
          <mxGeometry width="50" height="50" relative="1" as="geometry">
            <mxPoint x="520" y="1296" as="sourcePoint" />
            <mxPoint x="778" y="1296" as="targetPoint" />
          </mxGeometry>
        </mxCell>
        <mxCell id="EW-ovyUyHZ_5c20ek5Bu-6" value="" style="endArrow=none;html=1;rounded=0;startArrow=classic;startFill=1;endFill=0;dashed=1;entryX=0.102;entryY=0.466;entryDx=0;entryDy=0;entryPerimeter=0;" edge="1" parent="1">
          <mxGeometry width="50" height="50" relative="1" as="geometry">
            <mxPoint x="241" y="1344.2059200000003" as="sourcePoint" />
            <mxPoint x="508.4280000000001" y="1344.2059200000003" as="targetPoint" />
          </mxGeometry>
        </mxCell>
        <mxCell id="EW-ovyUyHZ_5c20ek5Bu-7" value="Show Post" style="text;html=1;align=center;verticalAlign=middle;whiteSpace=wrap;rounded=0;" vertex="1" parent="1">
          <mxGeometry x="40" y="1335" width="162" height="30" as="geometry" />
        </mxCell>
        <mxCell id="EW-ovyUyHZ_5c20ek5Bu-8" value="" style="endArrow=none;html=1;rounded=0;endFill=0;startArrow=classic;startFill=1;dashed=1;" edge="1" parent="1">
          <mxGeometry width="50" height="50" relative="1" as="geometry">
            <mxPoint x="2" y="1362" as="sourcePoint" />
            <mxPoint x="226" y="1363" as="targetPoint" />
          </mxGeometry>
        </mxCell>
        <mxCell id="EW-ovyUyHZ_5c20ek5Bu-9" value="Send View Request" style="text;html=1;align=center;verticalAlign=middle;whiteSpace=wrap;rounded=0;" vertex="1" parent="1">
          <mxGeometry x="293.5" y="1260" width="162" height="30" as="geometry" />
        </mxCell>
        <mxCell id="EW-ovyUyHZ_5c20ek5Bu-10" value="" style="endArrow=classic;html=1;rounded=0;entryX=0.071;entryY=0.103;entryDx=0;entryDy=0;entryPerimeter=0;" edge="1" parent="1">
          <mxGeometry width="50" height="50" relative="1" as="geometry">
            <mxPoint x="240.5" y="1281.6773600000004" as="sourcePoint" />
            <mxPoint x="509.99400000000014" y="1281.67736" as="targetPoint" />
          </mxGeometry>
        </mxCell>
        <mxCell id="EW-ovyUyHZ_5c20ek5Bu-11" value="" style="rounded=0;whiteSpace=wrap;html=1;" vertex="1" parent="1">
          <mxGeometry x="226" y="1260" width="14" height="137" as="geometry" />
        </mxCell>
        <mxCell id="EW-ovyUyHZ_5c20ek5Bu-12" value="" style="rounded=0;whiteSpace=wrap;html=1;" vertex="1" parent="1">
          <mxGeometry x="510" y="1271.88" width="14" height="95.12" as="geometry" />
        </mxCell>
        <mxCell id="EW-ovyUyHZ_5c20ek5Bu-13" value="" style="rounded=0;whiteSpace=wrap;html=1;" vertex="1" parent="1">
          <mxGeometry x="784" y="1279" width="14" height="42" as="geometry" />
        </mxCell>
        <mxCell id="EW-ovyUyHZ_5c20ek5Bu-14" value="Return Post" style="text;html=1;align=center;verticalAlign=middle;whiteSpace=wrap;rounded=0;" vertex="1" parent="1">
          <mxGeometry x="297.5" y="1314" width="162" height="30" as="geometry" />
        </mxCell>
        <mxCell id="EW-ovyUyHZ_5c20ek5Bu-15" value="" style="endArrow=classic;html=1;rounded=0;entryX=-0.107;entryY=0.097;entryDx=0;entryDy=0;entryPerimeter=0;" edge="1" parent="1">
          <mxGeometry width="50" height="50" relative="1" as="geometry">
            <mxPoint x="2.25" y="1462" as="sourcePoint" />
            <mxPoint x="225.75199999999995" y="1461.982" as="targetPoint" />
          </mxGeometry>
        </mxCell>
        <mxCell id="EW-ovyUyHZ_5c20ek5Bu-16" value="Update Post" style="text;html=1;align=center;verticalAlign=middle;whiteSpace=wrap;rounded=0;" vertex="1" parent="1">
          <mxGeometry x="27.25" y="1438" width="162" height="30" as="geometry" />
        </mxCell>
        <mxCell id="EW-ovyUyHZ_5c20ek5Bu-17" value="Load Post in the Update Page" style="text;html=1;align=center;verticalAlign=middle;whiteSpace=wrap;rounded=0;" vertex="1" parent="1">
          <mxGeometry x="555" y="1457" width="205" height="30" as="geometry" />
        </mxCell>
        <mxCell id="EW-ovyUyHZ_5c20ek5Bu-18" value="" style="endArrow=classic;html=1;rounded=0;entryX=-0.05;entryY=0.414;entryDx=0;entryDy=0;entryPerimeter=0;" edge="1" parent="1">
          <mxGeometry width="50" height="50" relative="1" as="geometry">
            <mxPoint x="521" y="1479.8460000000005" as="sourcePoint" />
            <mxPoint x="784.3000000000002" y="1479.846" as="targetPoint" />
          </mxGeometry>
        </mxCell>
        <mxCell id="EW-ovyUyHZ_5c20ek5Bu-19" value="" style="endArrow=none;html=1;rounded=0;startArrow=classic;startFill=1;endFill=0;dashed=1;entryX=0.102;entryY=0.466;entryDx=0;entryDy=0;entryPerimeter=0;" edge="1" parent="1">
          <mxGeometry width="50" height="50" relative="1" as="geometry">
            <mxPoint x="242" y="1526.2059200000003" as="sourcePoint" />
            <mxPoint x="509.4280000000001" y="1526.2059200000003" as="targetPoint" />
          </mxGeometry>
        </mxCell>
        <mxCell id="EW-ovyUyHZ_5c20ek5Bu-20" value="Show Post in the Update Page" style="text;html=1;align=center;verticalAlign=middle;whiteSpace=wrap;rounded=0;" vertex="1" parent="1">
          <mxGeometry x="20" y="1524" width="183" height="30" as="geometry" />
        </mxCell>
        <mxCell id="EW-ovyUyHZ_5c20ek5Bu-21" value="" style="endArrow=none;html=1;rounded=0;endFill=0;startArrow=classic;startFill=1;dashed=1;" edge="1" parent="1">
          <mxGeometry width="50" height="50" relative="1" as="geometry">
            <mxPoint x="3" y="1551" as="sourcePoint" />
            <mxPoint x="227" y="1552" as="targetPoint" />
          </mxGeometry>
        </mxCell>
        <mxCell id="EW-ovyUyHZ_5c20ek5Bu-22" value="Send Update Request" style="text;html=1;align=center;verticalAlign=middle;whiteSpace=wrap;rounded=0;" vertex="1" parent="1">
          <mxGeometry x="294.5" y="1449" width="162" height="30" as="geometry" />
        </mxCell>
        <mxCell id="EW-ovyUyHZ_5c20ek5Bu-23" value="" style="endArrow=classic;html=1;rounded=0;entryX=0.071;entryY=0.103;entryDx=0;entryDy=0;entryPerimeter=0;" edge="1" parent="1">
          <mxGeometry width="50" height="50" relative="1" as="geometry">
            <mxPoint x="241.5" y="1470.6773600000004" as="sourcePoint" />
            <mxPoint x="510.99400000000014" y="1470.67736" as="targetPoint" />
          </mxGeometry>
        </mxCell>
        <mxCell id="EW-ovyUyHZ_5c20ek5Bu-24" value="" style="rounded=0;whiteSpace=wrap;html=1;" vertex="1" parent="1">
          <mxGeometry x="227" y="1449" width="14" height="228" as="geometry" />
        </mxCell>
        <mxCell id="EW-ovyUyHZ_5c20ek5Bu-25" value="" style="rounded=0;whiteSpace=wrap;html=1;" vertex="1" parent="1">
          <mxGeometry x="785" y="1468" width="14" height="89" as="geometry" />
        </mxCell>
        <mxCell id="EW-ovyUyHZ_5c20ek5Bu-26" value="Return Post In the Update Page" style="text;html=1;align=center;verticalAlign=middle;whiteSpace=wrap;rounded=0;" vertex="1" parent="1">
          <mxGeometry x="286.5" y="1496" width="181.5" height="30" as="geometry" />
        </mxCell>
        <mxCell id="EW-ovyUyHZ_5c20ek5Bu-27" value="" style="endArrow=classic;html=1;rounded=0;entryX=-0.107;entryY=0.097;entryDx=0;entryDy=0;entryPerimeter=0;" edge="1" parent="1">
          <mxGeometry width="50" height="50" relative="1" as="geometry">
            <mxPoint x="2.5" y="1591" as="sourcePoint" />
            <mxPoint x="226.00199999999995" y="1590.982" as="targetPoint" />
          </mxGeometry>
        </mxCell>
        <mxCell id="EW-ovyUyHZ_5c20ek5Bu-28" value="Make changes and save" style="text;html=1;align=center;verticalAlign=middle;whiteSpace=wrap;rounded=0;" vertex="1" parent="1">
          <mxGeometry x="27.5" y="1567" width="162" height="30" as="geometry" />
        </mxCell>
        <mxCell id="EW-ovyUyHZ_5c20ek5Bu-29" value="Send Save Request" style="text;html=1;align=center;verticalAlign=middle;whiteSpace=wrap;rounded=0;" vertex="1" parent="1">
          <mxGeometry x="290.51" y="1587" width="162" height="30" as="geometry" />
        </mxCell>
        <mxCell id="EW-ovyUyHZ_5c20ek5Bu-30" value="" style="endArrow=classic;html=1;rounded=0;entryX=0.071;entryY=0.103;entryDx=0;entryDy=0;entryPerimeter=0;" edge="1" parent="1">
          <mxGeometry width="50" height="50" relative="1" as="geometry">
            <mxPoint x="240.51" y="1608.6773600000004" as="sourcePoint" />
            <mxPoint x="510.00400000000013" y="1608.67736" as="targetPoint" />
          </mxGeometry>
        </mxCell>
        <mxCell id="EW-ovyUyHZ_5c20ek5Bu-31" value="Save Post" style="text;html=1;align=center;verticalAlign=middle;whiteSpace=wrap;rounded=0;" vertex="1" parent="1">
          <mxGeometry x="562.85" y="1607" width="205" height="30" as="geometry" />
        </mxCell>
        <mxCell id="EW-ovyUyHZ_5c20ek5Bu-32" value="" style="endArrow=classic;html=1;rounded=0;entryX=-0.05;entryY=0.414;entryDx=0;entryDy=0;entryPerimeter=0;" edge="1" parent="1">
          <mxGeometry width="50" height="50" relative="1" as="geometry">
            <mxPoint x="522.85" y="1629.8460000000005" as="sourcePoint" />
            <mxPoint x="786.1500000000002" y="1629.846" as="targetPoint" />
          </mxGeometry>
        </mxCell>
        <mxCell id="EW-ovyUyHZ_5c20ek5Bu-33" value="" style="rounded=0;whiteSpace=wrap;html=1;" vertex="1" parent="1">
          <mxGeometry x="785" y="1577.5" width="14" height="89" as="geometry" />
        </mxCell>
        <mxCell id="EW-ovyUyHZ_5c20ek5Bu-34" value="" style="endArrow=none;html=1;rounded=0;startArrow=classic;startFill=1;endFill=0;dashed=1;entryX=0.102;entryY=0.466;entryDx=0;entryDy=0;entryPerimeter=0;" edge="1" parent="1">
          <mxGeometry width="50" height="50" relative="1" as="geometry">
            <mxPoint x="241" y="1647.2059200000003" as="sourcePoint" />
            <mxPoint x="508.4280000000001" y="1647.2059200000003" as="targetPoint" />
          </mxGeometry>
        </mxCell>
        <mxCell id="EW-ovyUyHZ_5c20ek5Bu-35" value="Redirect to the Home page" style="text;html=1;align=center;verticalAlign=middle;whiteSpace=wrap;rounded=0;" vertex="1" parent="1">
          <mxGeometry x="285.5" y="1617" width="181.5" height="30" as="geometry" />
        </mxCell>
        <mxCell id="EW-ovyUyHZ_5c20ek5Bu-36" value="Display Home Page" style="text;html=1;align=center;verticalAlign=middle;whiteSpace=wrap;rounded=0;" vertex="1" parent="1">
          <mxGeometry x="20" y="1644" width="183" height="30" as="geometry" />
        </mxCell>
        <mxCell id="EW-ovyUyHZ_5c20ek5Bu-37" value="" style="endArrow=none;html=1;rounded=0;endFill=0;startArrow=classic;startFill=1;dashed=1;" edge="1" parent="1">
          <mxGeometry width="50" height="50" relative="1" as="geometry">
            <mxPoint x="3" y="1671" as="sourcePoint" />
            <mxPoint x="227" y="1672" as="targetPoint" />
          </mxGeometry>
        </mxCell>
        <mxCell id="EW-ovyUyHZ_5c20ek5Bu-38" value="" style="rounded=0;whiteSpace=wrap;html=1;" vertex="1" parent="1">
          <mxGeometry x="511" y="1460.88" width="14" height="206.12" as="geometry" />
        </mxCell>
        <mxCell id="EW-ovyUyHZ_5c20ek5Bu-39" value="" style="endArrow=classic;html=1;rounded=0;entryX=-0.107;entryY=0.097;entryDx=0;entryDy=0;entryPerimeter=0;" edge="1" parent="1">
          <mxGeometry width="50" height="50" relative="1" as="geometry">
            <mxPoint x="2.25" y="1721" as="sourcePoint" />
            <mxPoint x="225.75199999999995" y="1720.982" as="targetPoint" />
          </mxGeometry>
        </mxCell>
        <mxCell id="EW-ovyUyHZ_5c20ek5Bu-40" value="Delete Post" style="text;html=1;align=center;verticalAlign=middle;whiteSpace=wrap;rounded=0;" vertex="1" parent="1">
          <mxGeometry x="27.25" y="1697" width="162" height="30" as="geometry" />
        </mxCell>
        <mxCell id="EW-ovyUyHZ_5c20ek5Bu-41" value="" style="endArrow=classic;html=1;rounded=0;entryX=-0.05;entryY=0.414;entryDx=0;entryDy=0;entryPerimeter=0;" edge="1" parent="1" target="EW-ovyUyHZ_5c20ek5Bu-49">
          <mxGeometry width="50" height="50" relative="1" as="geometry">
            <mxPoint x="521" y="1890.388" as="sourcePoint" />
            <mxPoint x="779" y="1890.388" as="targetPoint" />
          </mxGeometry>
        </mxCell>
        <mxCell id="EW-ovyUyHZ_5c20ek5Bu-42" value="" style="endArrow=none;html=1;rounded=0;startArrow=classic;startFill=1;endFill=0;dashed=1;entryX=0.102;entryY=0.466;entryDx=0;entryDy=0;entryPerimeter=0;" edge="1" parent="1">
          <mxGeometry width="50" height="50" relative="1" as="geometry">
            <mxPoint x="242" y="1792.2059200000003" as="sourcePoint" />
            <mxPoint x="509.4280000000001" y="1792.2059200000003" as="targetPoint" />
          </mxGeometry>
        </mxCell>
        <mxCell id="EW-ovyUyHZ_5c20ek5Bu-43" value="Show deletion prompt" style="text;html=1;align=center;verticalAlign=middle;whiteSpace=wrap;rounded=0;" vertex="1" parent="1">
          <mxGeometry x="41" y="1783" width="162" height="30" as="geometry" />
        </mxCell>
        <mxCell id="EW-ovyUyHZ_5c20ek5Bu-44" value="" style="endArrow=none;html=1;rounded=0;endFill=0;startArrow=classic;startFill=1;dashed=1;" edge="1" parent="1">
          <mxGeometry width="50" height="50" relative="1" as="geometry">
            <mxPoint x="3" y="1810" as="sourcePoint" />
            <mxPoint x="227" y="1811" as="targetPoint" />
          </mxGeometry>
        </mxCell>
        <mxCell id="EW-ovyUyHZ_5c20ek5Bu-45" value="Send Delete Request" style="text;html=1;align=center;verticalAlign=middle;whiteSpace=wrap;rounded=0;" vertex="1" parent="1">
          <mxGeometry x="294.5" y="1708" width="162" height="30" as="geometry" />
        </mxCell>
        <mxCell id="EW-ovyUyHZ_5c20ek5Bu-46" value="" style="endArrow=classic;html=1;rounded=0;entryX=0.071;entryY=0.103;entryDx=0;entryDy=0;entryPerimeter=0;" edge="1" parent="1">
          <mxGeometry width="50" height="50" relative="1" as="geometry">
            <mxPoint x="241.5" y="1729.6773600000004" as="sourcePoint" />
            <mxPoint x="510.99400000000014" y="1729.67736" as="targetPoint" />
          </mxGeometry>
        </mxCell>
        <mxCell id="EW-ovyUyHZ_5c20ek5Bu-47" value="" style="rounded=0;whiteSpace=wrap;html=1;" vertex="1" parent="1">
          <mxGeometry x="227" y="1708" width="14" height="349" as="geometry" />
        </mxCell>
        <mxCell id="EW-ovyUyHZ_5c20ek5Bu-48" value="" style="rounded=0;whiteSpace=wrap;html=1;" vertex="1" parent="1">
          <mxGeometry x="511" y="1719.88" width="14" height="277.12" as="geometry" />
        </mxCell>
        <mxCell id="EW-ovyUyHZ_5c20ek5Bu-49" value="" style="rounded=0;whiteSpace=wrap;html=1;" vertex="1" parent="1">
          <mxGeometry x="785" y="1873" width="14" height="42" as="geometry" />
        </mxCell>
        <mxCell id="EW-ovyUyHZ_5c20ek5Bu-50" value="Load deletion prompt" style="text;html=1;align=center;verticalAlign=middle;whiteSpace=wrap;rounded=0;" vertex="1" parent="1">
          <mxGeometry x="298.5" y="1762" width="162" height="30" as="geometry" />
        </mxCell>
        <mxCell id="EW-ovyUyHZ_5c20ek5Bu-51" value="Promt for deletion confirmation&amp;nbsp;" style="text;html=1;align=center;verticalAlign=middle;whiteSpace=wrap;rounded=0;" vertex="1" parent="1">
          <mxGeometry x="570" y="1742" width="99" height="30" as="geometry" />
        </mxCell>
        <mxCell id="EW-ovyUyHZ_5c20ek5Bu-52" value="" style="endArrow=classic;html=1;rounded=0;exitX=1;exitY=0.5;exitDx=0;exitDy=0;entryX=1;entryY=0.698;entryDx=0;entryDy=0;entryPerimeter=0;" edge="1" parent="1">
          <mxGeometry width="50" height="50" relative="1" as="geometry">
            <mxPoint x="525" y="1742" as="sourcePoint" />
            <mxPoint x="525" y="1773" as="targetPoint" />
            <Array as="points">
              <mxPoint x="563" y="1742" />
              <mxPoint x="563" y="1773" />
            </Array>
          </mxGeometry>
        </mxCell>
        <mxCell id="EW-ovyUyHZ_5c20ek5Bu-53" value="" style="endArrow=classic;html=1;rounded=0;entryX=-0.107;entryY=0.097;entryDx=0;entryDy=0;entryPerimeter=0;" edge="1" parent="1">
          <mxGeometry width="50" height="50" relative="1" as="geometry">
            <mxPoint x="2.5" y="1850" as="sourcePoint" />
            <mxPoint x="226.00199999999995" y="1849.982" as="targetPoint" />
          </mxGeometry>
        </mxCell>
        <mxCell id="EW-ovyUyHZ_5c20ek5Bu-54" value="Select &quot;Ok&quot;" style="text;html=1;align=center;verticalAlign=middle;whiteSpace=wrap;rounded=0;" vertex="1" parent="1">
          <mxGeometry x="27.5" y="1826" width="162" height="30" as="geometry" />
        </mxCell>
        <mxCell id="EW-ovyUyHZ_5c20ek5Bu-55" value="Confirm Delete Request" style="text;html=1;align=center;verticalAlign=middle;whiteSpace=wrap;rounded=0;" vertex="1" parent="1">
          <mxGeometry x="293.51" y="1847" width="162" height="30" as="geometry" />
        </mxCell>
        <mxCell id="EW-ovyUyHZ_5c20ek5Bu-56" value="" style="endArrow=classic;html=1;rounded=0;entryX=0.071;entryY=0.103;entryDx=0;entryDy=0;entryPerimeter=0;" edge="1" parent="1">
          <mxGeometry width="50" height="50" relative="1" as="geometry">
            <mxPoint x="240.51" y="1868.6773600000004" as="sourcePoint" />
            <mxPoint x="510.00400000000013" y="1868.67736" as="targetPoint" />
          </mxGeometry>
        </mxCell>
        <mxCell id="EW-ovyUyHZ_5c20ek5Bu-57" value="Delete Post" style="text;html=1;align=center;verticalAlign=middle;whiteSpace=wrap;rounded=0;" vertex="1" parent="1">
          <mxGeometry x="559" y="1867" width="205" height="30" as="geometry" />
        </mxCell>
        <mxCell id="EW-ovyUyHZ_5c20ek5Bu-58" value="" style="endArrow=none;html=1;rounded=0;startArrow=classic;startFill=1;endFill=0;dashed=1;entryX=0.102;entryY=0.466;entryDx=0;entryDy=0;entryPerimeter=0;" edge="1" parent="1">
          <mxGeometry width="50" height="50" relative="1" as="geometry">
            <mxPoint x="241.79" y="1914.3059200000002" as="sourcePoint" />
            <mxPoint x="509.2180000000001" y="1914.3059200000002" as="targetPoint" />
          </mxGeometry>
        </mxCell>
        <mxCell id="EW-ovyUyHZ_5c20ek5Bu-59" value="Update Posts list" style="text;html=1;align=center;verticalAlign=middle;whiteSpace=wrap;rounded=0;" vertex="1" parent="1">
          <mxGeometry x="298.29" y="1884.1" width="162" height="30" as="geometry" />
        </mxCell>
        <mxCell id="EW-ovyUyHZ_5c20ek5Bu-60" value="Show updated Posts list" style="text;html=1;align=center;verticalAlign=middle;whiteSpace=wrap;rounded=0;" vertex="1" parent="1">
          <mxGeometry x="41" y="1907" width="162" height="30" as="geometry" />
        </mxCell>
        <mxCell id="EW-ovyUyHZ_5c20ek5Bu-61" value="" style="endArrow=none;html=1;rounded=0;endFill=0;startArrow=classic;startFill=1;dashed=1;" edge="1" parent="1">
          <mxGeometry width="50" height="50" relative="1" as="geometry">
            <mxPoint x="3" y="1934" as="sourcePoint" />
            <mxPoint x="227" y="1935" as="targetPoint" />
          </mxGeometry>
        </mxCell>
        <mxCell id="EW-ovyUyHZ_5c20ek5Bu-62" value="" style="endArrow=classic;html=1;rounded=0;entryX=-0.107;entryY=0.097;entryDx=0;entryDy=0;entryPerimeter=0;" edge="1" parent="1">
          <mxGeometry width="50" height="50" relative="1" as="geometry">
            <mxPoint x="2.5" y="1971" as="sourcePoint" />
            <mxPoint x="226.00199999999995" y="1970.982" as="targetPoint" />
          </mxGeometry>
        </mxCell>
        <mxCell id="EW-ovyUyHZ_5c20ek5Bu-63" value="Select &quot;Cancel&quot;" style="text;html=1;align=center;verticalAlign=middle;whiteSpace=wrap;rounded=0;" vertex="1" parent="1">
          <mxGeometry x="27.5" y="1947" width="162" height="30" as="geometry" />
        </mxCell>
        <mxCell id="EW-ovyUyHZ_5c20ek5Bu-64" value="No change required" style="text;html=1;align=center;verticalAlign=middle;whiteSpace=wrap;rounded=0;" vertex="1" parent="1">
          <mxGeometry x="286" y="1997" width="99" height="30" as="geometry" />
        </mxCell>
        <mxCell id="EW-ovyUyHZ_5c20ek5Bu-65" value="" style="endArrow=classic;html=1;rounded=0;exitX=1;exitY=0.5;exitDx=0;exitDy=0;entryX=1;entryY=0.698;entryDx=0;entryDy=0;entryPerimeter=0;" edge="1" parent="1">
          <mxGeometry width="50" height="50" relative="1" as="geometry">
            <mxPoint x="241" y="1997" as="sourcePoint" />
            <mxPoint x="241" y="2028" as="targetPoint" />
            <Array as="points">
              <mxPoint x="279" y="1997" />
              <mxPoint x="279" y="2028" />
            </Array>
          </mxGeometry>
        </mxCell>
        <mxCell id="EW-ovyUyHZ_5c20ek5Bu-66" value="Show Posts list" style="text;html=1;align=center;verticalAlign=middle;whiteSpace=wrap;rounded=0;" vertex="1" parent="1">
          <mxGeometry x="41" y="2017" width="162" height="30" as="geometry" />
        </mxCell>
        <mxCell id="EW-ovyUyHZ_5c20ek5Bu-67" value="" style="endArrow=none;html=1;rounded=0;endFill=0;startArrow=classic;startFill=1;dashed=1;" edge="1" parent="1">
          <mxGeometry width="50" height="50" relative="1" as="geometry">
            <mxPoint x="3" y="2044" as="sourcePoint" />
            <mxPoint x="227" y="2045" as="targetPoint" />
          </mxGeometry>
        </mxCell>
        <mxCell id="EW-ovyUyHZ_5c20ek5Bu-68" value="" style="endArrow=classic;html=1;rounded=0;entryX=-0.107;entryY=0.097;entryDx=0;entryDy=0;entryPerimeter=0;" edge="1" parent="1">
          <mxGeometry width="50" height="50" relative="1" as="geometry">
            <mxPoint x="1.25" y="1095" as="sourcePoint" />
            <mxPoint x="224.75199999999995" y="1094.982" as="targetPoint" />
          </mxGeometry>
        </mxCell>
        <mxCell id="EW-ovyUyHZ_5c20ek5Bu-69" value="Make Post" style="text;html=1;align=center;verticalAlign=middle;whiteSpace=wrap;rounded=0;" vertex="1" parent="1">
          <mxGeometry x="26.25" y="1071" width="162" height="30" as="geometry" />
        </mxCell>
        <mxCell id="EW-ovyUyHZ_5c20ek5Bu-70" value="Create Post" style="text;html=1;align=center;verticalAlign=middle;whiteSpace=wrap;rounded=0;" vertex="1" parent="1">
          <mxGeometry x="554" y="1095" width="205" height="30" as="geometry" />
        </mxCell>
        <mxCell id="EW-ovyUyHZ_5c20ek5Bu-71" value="" style="endArrow=classic;html=1;rounded=0;entryX=0.083;entryY=0.201;entryDx=0;entryDy=0;entryPerimeter=0;" edge="1" parent="1">
          <mxGeometry width="50" height="50" relative="1" as="geometry">
            <mxPoint x="520" y="1123" as="sourcePoint" />
            <mxPoint x="785.1620000000003" y="1123.286" as="targetPoint" />
          </mxGeometry>
        </mxCell>
        <mxCell id="EW-ovyUyHZ_5c20ek5Bu-72" value="" style="endArrow=none;html=1;rounded=0;startArrow=classic;startFill=1;endFill=0;dashed=1;entryX=-0.1;entryY=0.285;entryDx=0;entryDy=0;entryPerimeter=0;" edge="1" parent="1">
          <mxGeometry width="50" height="50" relative="1" as="geometry">
            <mxPoint x="244" y="1155" as="sourcePoint" />
            <mxPoint x="508.5999999999999" y="1155.8692000000003" as="targetPoint" />
          </mxGeometry>
        </mxCell>
        <mxCell id="EW-ovyUyHZ_5c20ek5Bu-73" value="" style="endArrow=none;html=1;rounded=0;endFill=0;startArrow=classic;startFill=1;dashed=1;" edge="1" parent="1">
          <mxGeometry width="50" height="50" relative="1" as="geometry">
            <mxPoint x="2" y="1184" as="sourcePoint" />
            <mxPoint x="226" y="1185" as="targetPoint" />
          </mxGeometry>
        </mxCell>
        <mxCell id="EW-ovyUyHZ_5c20ek5Bu-74" value="Send Post Data" style="text;html=1;align=center;verticalAlign=middle;whiteSpace=wrap;rounded=0;" vertex="1" parent="1">
          <mxGeometry x="293.5" y="1082" width="162" height="30" as="geometry" />
        </mxCell>
        <mxCell id="EW-ovyUyHZ_5c20ek5Bu-75" value="" style="endArrow=classic;html=1;rounded=0;" edge="1" parent="1">
          <mxGeometry width="50" height="50" relative="1" as="geometry">
            <mxPoint x="241.5" y="1109.97" as="sourcePoint" />
            <mxPoint x="510" y="1110" as="targetPoint" />
          </mxGeometry>
        </mxCell>
        <mxCell id="EW-ovyUyHZ_5c20ek5Bu-76" value="" style="rounded=0;whiteSpace=wrap;html=1;" vertex="1" parent="1">
          <mxGeometry x="784" y="1101" width="14" height="86" as="geometry" />
        </mxCell>
        <mxCell id="EW-ovyUyHZ_5c20ek5Bu-79" value="" style="rounded=0;whiteSpace=wrap;html=1;" vertex="1" parent="1">
          <mxGeometry x="227" y="1071" width="14" height="137" as="geometry" />
        </mxCell>
        <mxCell id="EW-ovyUyHZ_5c20ek5Bu-80" value="" style="rounded=0;whiteSpace=wrap;html=1;" vertex="1" parent="1">
          <mxGeometry x="504" y="1091.88" width="14" height="95.12" as="geometry" />
        </mxCell>
        <mxCell id="EW-ovyUyHZ_5c20ek5Bu-81" value="Redirect to the Home page" style="text;html=1;align=center;verticalAlign=middle;whiteSpace=wrap;rounded=0;" vertex="1" parent="1">
          <mxGeometry x="286.5" y="1129" width="181.5" height="30" as="geometry" />
        </mxCell>
        <mxCell id="EW-ovyUyHZ_5c20ek5Bu-82" value="Display Home Page" style="text;html=1;align=center;verticalAlign=middle;whiteSpace=wrap;rounded=0;" vertex="1" parent="1">
          <mxGeometry x="21" y="1159" width="183" height="30" as="geometry" />
        </mxCell>
      </root>
    </mxGraphModel>
  </diagram>
  <diagram id="kSlaw-WrVys4LPdHp5tf" name="Page-2">
    <mxGraphModel dx="2514" dy="993" grid="1" gridSize="10" guides="1" tooltips="1" connect="1" arrows="1" fold="1" page="1" pageScale="1" pageWidth="827" pageHeight="1169" math="0" shadow="0">
      <root>
        <mxCell id="0" />
        <mxCell id="1" parent="0" />
        <mxCell id="1GPlpfpGMDa2duUX27Ni-1" value="" style="endArrow=none;html=1;rounded=0;" edge="1" parent="1" source="1GPlpfpGMDa2duUX27Ni-80">
          <mxGeometry width="50" height="50" relative="1" as="geometry">
            <mxPoint x="513.37" y="-734" as="sourcePoint" />
            <mxPoint x="513" y="2081" as="targetPoint" />
          </mxGeometry>
        </mxCell>
        <mxCell id="1GPlpfpGMDa2duUX27Ni-2" value="" style="endArrow=classic;html=1;rounded=0;entryX=-0.107;entryY=0.097;entryDx=0;entryDy=0;entryPerimeter=0;" edge="1" parent="1">
          <mxGeometry width="50" height="50" relative="1" as="geometry">
            <mxPoint x="1.25" y="1273" as="sourcePoint" />
            <mxPoint x="224.75199999999995" y="1272.982" as="targetPoint" />
          </mxGeometry>
        </mxCell>
        <mxCell id="1GPlpfpGMDa2duUX27Ni-3" value="View Post" style="text;html=1;align=center;verticalAlign=middle;whiteSpace=wrap;rounded=0;" vertex="1" parent="1">
          <mxGeometry x="26.25" y="1249" width="162" height="30" as="geometry" />
        </mxCell>
        <mxCell id="1GPlpfpGMDa2duUX27Ni-4" value="Load Post" style="text;html=1;align=center;verticalAlign=middle;whiteSpace=wrap;rounded=0;" vertex="1" parent="1">
          <mxGeometry x="554" y="1268" width="205" height="30" as="geometry" />
        </mxCell>
        <mxCell id="1GPlpfpGMDa2duUX27Ni-5" value="" style="endArrow=classic;html=1;rounded=0;entryX=-0.05;entryY=0.414;entryDx=0;entryDy=0;entryPerimeter=0;" edge="1" parent="1" target="1GPlpfpGMDa2duUX27Ni-13">
          <mxGeometry width="50" height="50" relative="1" as="geometry">
            <mxPoint x="520" y="1296" as="sourcePoint" />
            <mxPoint x="778" y="1296" as="targetPoint" />
          </mxGeometry>
        </mxCell>
        <mxCell id="1GPlpfpGMDa2duUX27Ni-6" value="" style="endArrow=none;html=1;rounded=0;startArrow=classic;startFill=1;endFill=0;dashed=1;entryX=0.102;entryY=0.466;entryDx=0;entryDy=0;entryPerimeter=0;" edge="1" parent="1">
          <mxGeometry width="50" height="50" relative="1" as="geometry">
            <mxPoint x="241" y="1344.2059200000003" as="sourcePoint" />
            <mxPoint x="508.4280000000001" y="1344.2059200000003" as="targetPoint" />
          </mxGeometry>
        </mxCell>
        <mxCell id="1GPlpfpGMDa2duUX27Ni-7" value="Show Post" style="text;html=1;align=center;verticalAlign=middle;whiteSpace=wrap;rounded=0;" vertex="1" parent="1">
          <mxGeometry x="40" y="1335" width="162" height="30" as="geometry" />
        </mxCell>
        <mxCell id="1GPlpfpGMDa2duUX27Ni-8" value="" style="endArrow=none;html=1;rounded=0;endFill=0;startArrow=classic;startFill=1;dashed=1;" edge="1" parent="1">
          <mxGeometry width="50" height="50" relative="1" as="geometry">
            <mxPoint x="2" y="1362" as="sourcePoint" />
            <mxPoint x="226" y="1363" as="targetPoint" />
          </mxGeometry>
        </mxCell>
        <mxCell id="1GPlpfpGMDa2duUX27Ni-9" value="Send View Request" style="text;html=1;align=center;verticalAlign=middle;whiteSpace=wrap;rounded=0;" vertex="1" parent="1">
          <mxGeometry x="293.5" y="1260" width="162" height="30" as="geometry" />
        </mxCell>
        <mxCell id="1GPlpfpGMDa2duUX27Ni-10" value="" style="endArrow=classic;html=1;rounded=0;entryX=0.071;entryY=0.103;entryDx=0;entryDy=0;entryPerimeter=0;" edge="1" parent="1">
          <mxGeometry width="50" height="50" relative="1" as="geometry">
            <mxPoint x="240.5" y="1281.6773600000004" as="sourcePoint" />
            <mxPoint x="509.99400000000014" y="1281.67736" as="targetPoint" />
          </mxGeometry>
        </mxCell>
        <mxCell id="1GPlpfpGMDa2duUX27Ni-11" value="" style="rounded=0;whiteSpace=wrap;html=1;" vertex="1" parent="1">
          <mxGeometry x="226" y="1260" width="14" height="137" as="geometry" />
        </mxCell>
        <mxCell id="1GPlpfpGMDa2duUX27Ni-12" value="" style="rounded=0;whiteSpace=wrap;html=1;" vertex="1" parent="1">
          <mxGeometry x="510" y="1271.88" width="14" height="95.12" as="geometry" />
        </mxCell>
        <mxCell id="1GPlpfpGMDa2duUX27Ni-13" value="" style="rounded=0;whiteSpace=wrap;html=1;" vertex="1" parent="1">
          <mxGeometry x="784" y="1279" width="14" height="42" as="geometry" />
        </mxCell>
        <mxCell id="1GPlpfpGMDa2duUX27Ni-14" value="Return Post" style="text;html=1;align=center;verticalAlign=middle;whiteSpace=wrap;rounded=0;" vertex="1" parent="1">
          <mxGeometry x="297.5" y="1314" width="162" height="30" as="geometry" />
        </mxCell>
        <mxCell id="1GPlpfpGMDa2duUX27Ni-15" value="" style="endArrow=classic;html=1;rounded=0;entryX=-0.107;entryY=0.097;entryDx=0;entryDy=0;entryPerimeter=0;" edge="1" parent="1">
          <mxGeometry width="50" height="50" relative="1" as="geometry">
            <mxPoint x="2.25" y="1462" as="sourcePoint" />
            <mxPoint x="225.75199999999995" y="1461.982" as="targetPoint" />
          </mxGeometry>
        </mxCell>
        <mxCell id="1GPlpfpGMDa2duUX27Ni-16" value="Update Post" style="text;html=1;align=center;verticalAlign=middle;whiteSpace=wrap;rounded=0;" vertex="1" parent="1">
          <mxGeometry x="27.25" y="1438" width="162" height="30" as="geometry" />
        </mxCell>
        <mxCell id="1GPlpfpGMDa2duUX27Ni-17" value="Load Post in the Update Page" style="text;html=1;align=center;verticalAlign=middle;whiteSpace=wrap;rounded=0;" vertex="1" parent="1">
          <mxGeometry x="555" y="1457" width="205" height="30" as="geometry" />
        </mxCell>
        <mxCell id="1GPlpfpGMDa2duUX27Ni-18" value="" style="endArrow=classic;html=1;rounded=0;entryX=-0.05;entryY=0.414;entryDx=0;entryDy=0;entryPerimeter=0;" edge="1" parent="1">
          <mxGeometry width="50" height="50" relative="1" as="geometry">
            <mxPoint x="521" y="1479.8460000000005" as="sourcePoint" />
            <mxPoint x="784.3000000000002" y="1479.846" as="targetPoint" />
          </mxGeometry>
        </mxCell>
        <mxCell id="1GPlpfpGMDa2duUX27Ni-19" value="" style="endArrow=none;html=1;rounded=0;startArrow=classic;startFill=1;endFill=0;dashed=1;entryX=0.102;entryY=0.466;entryDx=0;entryDy=0;entryPerimeter=0;" edge="1" parent="1">
          <mxGeometry width="50" height="50" relative="1" as="geometry">
            <mxPoint x="242" y="1526.2059200000003" as="sourcePoint" />
            <mxPoint x="509.4280000000001" y="1526.2059200000003" as="targetPoint" />
          </mxGeometry>
        </mxCell>
        <mxCell id="1GPlpfpGMDa2duUX27Ni-20" value="Show Post in the Update Page" style="text;html=1;align=center;verticalAlign=middle;whiteSpace=wrap;rounded=0;" vertex="1" parent="1">
          <mxGeometry x="20" y="1524" width="183" height="30" as="geometry" />
        </mxCell>
        <mxCell id="1GPlpfpGMDa2duUX27Ni-21" value="" style="endArrow=none;html=1;rounded=0;endFill=0;startArrow=classic;startFill=1;dashed=1;" edge="1" parent="1">
          <mxGeometry width="50" height="50" relative="1" as="geometry">
            <mxPoint x="3" y="1551" as="sourcePoint" />
            <mxPoint x="227" y="1552" as="targetPoint" />
          </mxGeometry>
        </mxCell>
        <mxCell id="1GPlpfpGMDa2duUX27Ni-22" value="Send Update Request" style="text;html=1;align=center;verticalAlign=middle;whiteSpace=wrap;rounded=0;" vertex="1" parent="1">
          <mxGeometry x="294.5" y="1449" width="162" height="30" as="geometry" />
        </mxCell>
        <mxCell id="1GPlpfpGMDa2duUX27Ni-23" value="" style="endArrow=classic;html=1;rounded=0;entryX=0.071;entryY=0.103;entryDx=0;entryDy=0;entryPerimeter=0;" edge="1" parent="1">
          <mxGeometry width="50" height="50" relative="1" as="geometry">
            <mxPoint x="241.5" y="1470.6773600000004" as="sourcePoint" />
            <mxPoint x="510.99400000000014" y="1470.67736" as="targetPoint" />
          </mxGeometry>
        </mxCell>
        <mxCell id="1GPlpfpGMDa2duUX27Ni-24" value="" style="rounded=0;whiteSpace=wrap;html=1;" vertex="1" parent="1">
          <mxGeometry x="227" y="1449" width="14" height="228" as="geometry" />
        </mxCell>
        <mxCell id="1GPlpfpGMDa2duUX27Ni-25" value="" style="rounded=0;whiteSpace=wrap;html=1;" vertex="1" parent="1">
          <mxGeometry x="785" y="1468" width="14" height="89" as="geometry" />
        </mxCell>
        <mxCell id="1GPlpfpGMDa2duUX27Ni-26" value="Return Post In the Update Page" style="text;html=1;align=center;verticalAlign=middle;whiteSpace=wrap;rounded=0;" vertex="1" parent="1">
          <mxGeometry x="286.5" y="1496" width="181.5" height="30" as="geometry" />
        </mxCell>
        <mxCell id="1GPlpfpGMDa2duUX27Ni-27" value="" style="endArrow=classic;html=1;rounded=0;entryX=-0.107;entryY=0.097;entryDx=0;entryDy=0;entryPerimeter=0;" edge="1" parent="1">
          <mxGeometry width="50" height="50" relative="1" as="geometry">
            <mxPoint x="2.5" y="1591" as="sourcePoint" />
            <mxPoint x="226.00199999999995" y="1590.982" as="targetPoint" />
          </mxGeometry>
        </mxCell>
        <mxCell id="1GPlpfpGMDa2duUX27Ni-28" value="Make changes and save" style="text;html=1;align=center;verticalAlign=middle;whiteSpace=wrap;rounded=0;" vertex="1" parent="1">
          <mxGeometry x="27.5" y="1567" width="162" height="30" as="geometry" />
        </mxCell>
        <mxCell id="1GPlpfpGMDa2duUX27Ni-29" value="Send Save Request" style="text;html=1;align=center;verticalAlign=middle;whiteSpace=wrap;rounded=0;" vertex="1" parent="1">
          <mxGeometry x="290.51" y="1587" width="162" height="30" as="geometry" />
        </mxCell>
        <mxCell id="1GPlpfpGMDa2duUX27Ni-30" value="" style="endArrow=classic;html=1;rounded=0;entryX=0.071;entryY=0.103;entryDx=0;entryDy=0;entryPerimeter=0;" edge="1" parent="1">
          <mxGeometry width="50" height="50" relative="1" as="geometry">
            <mxPoint x="240.51" y="1608.6773600000004" as="sourcePoint" />
            <mxPoint x="510.00400000000013" y="1608.67736" as="targetPoint" />
          </mxGeometry>
        </mxCell>
        <mxCell id="1GPlpfpGMDa2duUX27Ni-31" value="Save Post" style="text;html=1;align=center;verticalAlign=middle;whiteSpace=wrap;rounded=0;" vertex="1" parent="1">
          <mxGeometry x="562.85" y="1607" width="205" height="30" as="geometry" />
        </mxCell>
        <mxCell id="1GPlpfpGMDa2duUX27Ni-32" value="" style="endArrow=classic;html=1;rounded=0;entryX=-0.05;entryY=0.414;entryDx=0;entryDy=0;entryPerimeter=0;" edge="1" parent="1">
          <mxGeometry width="50" height="50" relative="1" as="geometry">
            <mxPoint x="522.85" y="1629.8460000000005" as="sourcePoint" />
            <mxPoint x="786.1500000000002" y="1629.846" as="targetPoint" />
          </mxGeometry>
        </mxCell>
        <mxCell id="1GPlpfpGMDa2duUX27Ni-33" value="" style="rounded=0;whiteSpace=wrap;html=1;" vertex="1" parent="1">
          <mxGeometry x="785" y="1577.5" width="14" height="89" as="geometry" />
        </mxCell>
        <mxCell id="1GPlpfpGMDa2duUX27Ni-34" value="" style="endArrow=none;html=1;rounded=0;startArrow=classic;startFill=1;endFill=0;dashed=1;entryX=0.102;entryY=0.466;entryDx=0;entryDy=0;entryPerimeter=0;" edge="1" parent="1">
          <mxGeometry width="50" height="50" relative="1" as="geometry">
            <mxPoint x="241" y="1647.2059200000003" as="sourcePoint" />
            <mxPoint x="508.4280000000001" y="1647.2059200000003" as="targetPoint" />
          </mxGeometry>
        </mxCell>
        <mxCell id="1GPlpfpGMDa2duUX27Ni-35" value="Redirect to the Home page" style="text;html=1;align=center;verticalAlign=middle;whiteSpace=wrap;rounded=0;" vertex="1" parent="1">
          <mxGeometry x="285.5" y="1617" width="181.5" height="30" as="geometry" />
        </mxCell>
        <mxCell id="1GPlpfpGMDa2duUX27Ni-36" value="Display Home Page" style="text;html=1;align=center;verticalAlign=middle;whiteSpace=wrap;rounded=0;" vertex="1" parent="1">
          <mxGeometry x="20" y="1644" width="183" height="30" as="geometry" />
        </mxCell>
        <mxCell id="1GPlpfpGMDa2duUX27Ni-37" value="" style="endArrow=none;html=1;rounded=0;endFill=0;startArrow=classic;startFill=1;dashed=1;" edge="1" parent="1">
          <mxGeometry width="50" height="50" relative="1" as="geometry">
            <mxPoint x="3" y="1671" as="sourcePoint" />
            <mxPoint x="227" y="1672" as="targetPoint" />
          </mxGeometry>
        </mxCell>
        <mxCell id="1GPlpfpGMDa2duUX27Ni-38" value="" style="rounded=0;whiteSpace=wrap;html=1;" vertex="1" parent="1">
          <mxGeometry x="511" y="1460.88" width="14" height="206.12" as="geometry" />
        </mxCell>
        <mxCell id="1GPlpfpGMDa2duUX27Ni-39" value="" style="endArrow=classic;html=1;rounded=0;entryX=-0.107;entryY=0.097;entryDx=0;entryDy=0;entryPerimeter=0;" edge="1" parent="1">
          <mxGeometry width="50" height="50" relative="1" as="geometry">
            <mxPoint x="2.25" y="1721" as="sourcePoint" />
            <mxPoint x="225.75199999999995" y="1720.982" as="targetPoint" />
          </mxGeometry>
        </mxCell>
        <mxCell id="1GPlpfpGMDa2duUX27Ni-40" value="Delete Post" style="text;html=1;align=center;verticalAlign=middle;whiteSpace=wrap;rounded=0;" vertex="1" parent="1">
          <mxGeometry x="27.25" y="1697" width="162" height="30" as="geometry" />
        </mxCell>
        <mxCell id="1GPlpfpGMDa2duUX27Ni-41" value="" style="endArrow=classic;html=1;rounded=0;entryX=-0.05;entryY=0.414;entryDx=0;entryDy=0;entryPerimeter=0;" edge="1" parent="1" target="1GPlpfpGMDa2duUX27Ni-49">
          <mxGeometry width="50" height="50" relative="1" as="geometry">
            <mxPoint x="521" y="1890.388" as="sourcePoint" />
            <mxPoint x="779" y="1890.388" as="targetPoint" />
          </mxGeometry>
        </mxCell>
        <mxCell id="1GPlpfpGMDa2duUX27Ni-42" value="" style="endArrow=none;html=1;rounded=0;startArrow=classic;startFill=1;endFill=0;dashed=1;entryX=0.102;entryY=0.466;entryDx=0;entryDy=0;entryPerimeter=0;" edge="1" parent="1">
          <mxGeometry width="50" height="50" relative="1" as="geometry">
            <mxPoint x="242" y="1792.2059200000003" as="sourcePoint" />
            <mxPoint x="509.4280000000001" y="1792.2059200000003" as="targetPoint" />
          </mxGeometry>
        </mxCell>
        <mxCell id="1GPlpfpGMDa2duUX27Ni-43" value="Show deletion prompt" style="text;html=1;align=center;verticalAlign=middle;whiteSpace=wrap;rounded=0;" vertex="1" parent="1">
          <mxGeometry x="41" y="1783" width="162" height="30" as="geometry" />
        </mxCell>
        <mxCell id="1GPlpfpGMDa2duUX27Ni-44" value="" style="endArrow=none;html=1;rounded=0;endFill=0;startArrow=classic;startFill=1;dashed=1;" edge="1" parent="1">
          <mxGeometry width="50" height="50" relative="1" as="geometry">
            <mxPoint x="3" y="1810" as="sourcePoint" />
            <mxPoint x="227" y="1811" as="targetPoint" />
          </mxGeometry>
        </mxCell>
        <mxCell id="1GPlpfpGMDa2duUX27Ni-45" value="Send Delete Request" style="text;html=1;align=center;verticalAlign=middle;whiteSpace=wrap;rounded=0;" vertex="1" parent="1">
          <mxGeometry x="294.5" y="1708" width="162" height="30" as="geometry" />
        </mxCell>
        <mxCell id="1GPlpfpGMDa2duUX27Ni-46" value="" style="endArrow=classic;html=1;rounded=0;entryX=0.071;entryY=0.103;entryDx=0;entryDy=0;entryPerimeter=0;" edge="1" parent="1">
          <mxGeometry width="50" height="50" relative="1" as="geometry">
            <mxPoint x="241.5" y="1729.6773600000004" as="sourcePoint" />
            <mxPoint x="510.99400000000014" y="1729.67736" as="targetPoint" />
          </mxGeometry>
        </mxCell>
        <mxCell id="1GPlpfpGMDa2duUX27Ni-47" value="" style="rounded=0;whiteSpace=wrap;html=1;" vertex="1" parent="1">
          <mxGeometry x="227" y="1708" width="14" height="349" as="geometry" />
        </mxCell>
        <mxCell id="1GPlpfpGMDa2duUX27Ni-48" value="" style="rounded=0;whiteSpace=wrap;html=1;" vertex="1" parent="1">
          <mxGeometry x="511" y="1719.88" width="14" height="277.12" as="geometry" />
        </mxCell>
        <mxCell id="1GPlpfpGMDa2duUX27Ni-49" value="" style="rounded=0;whiteSpace=wrap;html=1;" vertex="1" parent="1">
          <mxGeometry x="785" y="1873" width="14" height="42" as="geometry" />
        </mxCell>
        <mxCell id="1GPlpfpGMDa2duUX27Ni-50" value="Load deletion prompt" style="text;html=1;align=center;verticalAlign=middle;whiteSpace=wrap;rounded=0;" vertex="1" parent="1">
          <mxGeometry x="298.5" y="1762" width="162" height="30" as="geometry" />
        </mxCell>
        <mxCell id="1GPlpfpGMDa2duUX27Ni-51" value="Promt for deletion confirmation&amp;nbsp;" style="text;html=1;align=center;verticalAlign=middle;whiteSpace=wrap;rounded=0;" vertex="1" parent="1">
          <mxGeometry x="570" y="1742" width="99" height="30" as="geometry" />
        </mxCell>
        <mxCell id="1GPlpfpGMDa2duUX27Ni-52" value="" style="endArrow=classic;html=1;rounded=0;exitX=1;exitY=0.5;exitDx=0;exitDy=0;entryX=1;entryY=0.698;entryDx=0;entryDy=0;entryPerimeter=0;" edge="1" parent="1">
          <mxGeometry width="50" height="50" relative="1" as="geometry">
            <mxPoint x="525" y="1742" as="sourcePoint" />
            <mxPoint x="525" y="1773" as="targetPoint" />
            <Array as="points">
              <mxPoint x="563" y="1742" />
              <mxPoint x="563" y="1773" />
            </Array>
          </mxGeometry>
        </mxCell>
        <mxCell id="1GPlpfpGMDa2duUX27Ni-53" value="" style="endArrow=classic;html=1;rounded=0;entryX=-0.107;entryY=0.097;entryDx=0;entryDy=0;entryPerimeter=0;" edge="1" parent="1">
          <mxGeometry width="50" height="50" relative="1" as="geometry">
            <mxPoint x="2.5" y="1850" as="sourcePoint" />
            <mxPoint x="226.00199999999995" y="1849.982" as="targetPoint" />
          </mxGeometry>
        </mxCell>
        <mxCell id="1GPlpfpGMDa2duUX27Ni-54" value="Select &quot;Ok&quot;" style="text;html=1;align=center;verticalAlign=middle;whiteSpace=wrap;rounded=0;" vertex="1" parent="1">
          <mxGeometry x="27.5" y="1826" width="162" height="30" as="geometry" />
        </mxCell>
        <mxCell id="1GPlpfpGMDa2duUX27Ni-55" value="Confirm Delete Request" style="text;html=1;align=center;verticalAlign=middle;whiteSpace=wrap;rounded=0;" vertex="1" parent="1">
          <mxGeometry x="293.51" y="1847" width="162" height="30" as="geometry" />
        </mxCell>
        <mxCell id="1GPlpfpGMDa2duUX27Ni-56" value="" style="endArrow=classic;html=1;rounded=0;entryX=0.071;entryY=0.103;entryDx=0;entryDy=0;entryPerimeter=0;" edge="1" parent="1">
          <mxGeometry width="50" height="50" relative="1" as="geometry">
            <mxPoint x="240.51" y="1868.6773600000004" as="sourcePoint" />
            <mxPoint x="510.00400000000013" y="1868.67736" as="targetPoint" />
          </mxGeometry>
        </mxCell>
        <mxCell id="1GPlpfpGMDa2duUX27Ni-57" value="Delete Post" style="text;html=1;align=center;verticalAlign=middle;whiteSpace=wrap;rounded=0;" vertex="1" parent="1">
          <mxGeometry x="559" y="1867" width="205" height="30" as="geometry" />
        </mxCell>
        <mxCell id="1GPlpfpGMDa2duUX27Ni-58" value="" style="endArrow=none;html=1;rounded=0;startArrow=classic;startFill=1;endFill=0;dashed=1;entryX=0.102;entryY=0.466;entryDx=0;entryDy=0;entryPerimeter=0;" edge="1" parent="1">
          <mxGeometry width="50" height="50" relative="1" as="geometry">
            <mxPoint x="241.79" y="1914.3059200000002" as="sourcePoint" />
            <mxPoint x="509.2180000000001" y="1914.3059200000002" as="targetPoint" />
          </mxGeometry>
        </mxCell>
        <mxCell id="1GPlpfpGMDa2duUX27Ni-59" value="Update Posts list" style="text;html=1;align=center;verticalAlign=middle;whiteSpace=wrap;rounded=0;" vertex="1" parent="1">
          <mxGeometry x="298.29" y="1884.1" width="162" height="30" as="geometry" />
        </mxCell>
        <mxCell id="1GPlpfpGMDa2duUX27Ni-60" value="Show updated Posts list" style="text;html=1;align=center;verticalAlign=middle;whiteSpace=wrap;rounded=0;" vertex="1" parent="1">
          <mxGeometry x="41" y="1907" width="162" height="30" as="geometry" />
        </mxCell>
        <mxCell id="1GPlpfpGMDa2duUX27Ni-61" value="" style="endArrow=none;html=1;rounded=0;endFill=0;startArrow=classic;startFill=1;dashed=1;" edge="1" parent="1">
          <mxGeometry width="50" height="50" relative="1" as="geometry">
            <mxPoint x="3" y="1934" as="sourcePoint" />
            <mxPoint x="227" y="1935" as="targetPoint" />
          </mxGeometry>
        </mxCell>
        <mxCell id="1GPlpfpGMDa2duUX27Ni-62" value="" style="endArrow=classic;html=1;rounded=0;entryX=-0.107;entryY=0.097;entryDx=0;entryDy=0;entryPerimeter=0;" edge="1" parent="1">
          <mxGeometry width="50" height="50" relative="1" as="geometry">
            <mxPoint x="2.5" y="1971" as="sourcePoint" />
            <mxPoint x="226.00199999999995" y="1970.982" as="targetPoint" />
          </mxGeometry>
        </mxCell>
        <mxCell id="1GPlpfpGMDa2duUX27Ni-63" value="Select &quot;Cancel&quot;" style="text;html=1;align=center;verticalAlign=middle;whiteSpace=wrap;rounded=0;" vertex="1" parent="1">
          <mxGeometry x="27.5" y="1947" width="162" height="30" as="geometry" />
        </mxCell>
        <mxCell id="1GPlpfpGMDa2duUX27Ni-64" value="No change required" style="text;html=1;align=center;verticalAlign=middle;whiteSpace=wrap;rounded=0;" vertex="1" parent="1">
          <mxGeometry x="286" y="1997" width="99" height="30" as="geometry" />
        </mxCell>
        <mxCell id="1GPlpfpGMDa2duUX27Ni-65" value="" style="endArrow=classic;html=1;rounded=0;exitX=1;exitY=0.5;exitDx=0;exitDy=0;entryX=1;entryY=0.698;entryDx=0;entryDy=0;entryPerimeter=0;" edge="1" parent="1">
          <mxGeometry width="50" height="50" relative="1" as="geometry">
            <mxPoint x="241" y="1997" as="sourcePoint" />
            <mxPoint x="241" y="2028" as="targetPoint" />
            <Array as="points">
              <mxPoint x="279" y="1997" />
              <mxPoint x="279" y="2028" />
            </Array>
          </mxGeometry>
        </mxCell>
        <mxCell id="1GPlpfpGMDa2duUX27Ni-66" value="Show Posts list" style="text;html=1;align=center;verticalAlign=middle;whiteSpace=wrap;rounded=0;" vertex="1" parent="1">
          <mxGeometry x="41" y="2017" width="162" height="30" as="geometry" />
        </mxCell>
        <mxCell id="1GPlpfpGMDa2duUX27Ni-67" value="" style="endArrow=none;html=1;rounded=0;endFill=0;startArrow=classic;startFill=1;dashed=1;" edge="1" parent="1">
          <mxGeometry width="50" height="50" relative="1" as="geometry">
            <mxPoint x="3" y="2044" as="sourcePoint" />
            <mxPoint x="227" y="2045" as="targetPoint" />
          </mxGeometry>
        </mxCell>
        <mxCell id="1GPlpfpGMDa2duUX27Ni-68" value="" style="endArrow=classic;html=1;rounded=0;entryX=-0.107;entryY=0.097;entryDx=0;entryDy=0;entryPerimeter=0;" edge="1" parent="1">
          <mxGeometry width="50" height="50" relative="1" as="geometry">
            <mxPoint x="1.25" y="1095" as="sourcePoint" />
            <mxPoint x="224.75199999999995" y="1094.982" as="targetPoint" />
          </mxGeometry>
        </mxCell>
        <mxCell id="1GPlpfpGMDa2duUX27Ni-69" value="Make Post" style="text;html=1;align=center;verticalAlign=middle;whiteSpace=wrap;rounded=0;" vertex="1" parent="1">
          <mxGeometry x="26.25" y="1071" width="162" height="30" as="geometry" />
        </mxCell>
        <mxCell id="1GPlpfpGMDa2duUX27Ni-70" value="Create Post" style="text;html=1;align=center;verticalAlign=middle;whiteSpace=wrap;rounded=0;" vertex="1" parent="1">
          <mxGeometry x="554" y="1095" width="205" height="30" as="geometry" />
        </mxCell>
        <mxCell id="1GPlpfpGMDa2duUX27Ni-71" value="" style="endArrow=classic;html=1;rounded=0;entryX=0.083;entryY=0.201;entryDx=0;entryDy=0;entryPerimeter=0;" edge="1" parent="1">
          <mxGeometry width="50" height="50" relative="1" as="geometry">
            <mxPoint x="520" y="1123" as="sourcePoint" />
            <mxPoint x="785.1620000000003" y="1123.286" as="targetPoint" />
          </mxGeometry>
        </mxCell>
        <mxCell id="1GPlpfpGMDa2duUX27Ni-72" value="" style="endArrow=none;html=1;rounded=0;startArrow=classic;startFill=1;endFill=0;dashed=1;entryX=-0.1;entryY=0.285;entryDx=0;entryDy=0;entryPerimeter=0;" edge="1" parent="1">
          <mxGeometry width="50" height="50" relative="1" as="geometry">
            <mxPoint x="244" y="1155" as="sourcePoint" />
            <mxPoint x="508.5999999999999" y="1155.8692000000003" as="targetPoint" />
          </mxGeometry>
        </mxCell>
        <mxCell id="1GPlpfpGMDa2duUX27Ni-73" value="" style="endArrow=none;html=1;rounded=0;endFill=0;startArrow=classic;startFill=1;dashed=1;" edge="1" parent="1">
          <mxGeometry width="50" height="50" relative="1" as="geometry">
            <mxPoint x="2" y="1184" as="sourcePoint" />
            <mxPoint x="226" y="1185" as="targetPoint" />
          </mxGeometry>
        </mxCell>
        <mxCell id="1GPlpfpGMDa2duUX27Ni-74" value="Send Post Data" style="text;html=1;align=center;verticalAlign=middle;whiteSpace=wrap;rounded=0;" vertex="1" parent="1">
          <mxGeometry x="293.5" y="1082" width="162" height="30" as="geometry" />
        </mxCell>
        <mxCell id="1GPlpfpGMDa2duUX27Ni-75" value="" style="endArrow=classic;html=1;rounded=0;" edge="1" parent="1">
          <mxGeometry width="50" height="50" relative="1" as="geometry">
            <mxPoint x="241.5" y="1109.97" as="sourcePoint" />
            <mxPoint x="510" y="1110" as="targetPoint" />
          </mxGeometry>
        </mxCell>
        <mxCell id="1GPlpfpGMDa2duUX27Ni-76" value="" style="rounded=0;whiteSpace=wrap;html=1;" vertex="1" parent="1">
          <mxGeometry x="784" y="1101" width="14" height="86" as="geometry" />
        </mxCell>
        <mxCell id="1GPlpfpGMDa2duUX27Ni-77" value="Return confirmation for Post Creation" style="text;html=1;align=center;verticalAlign=middle;whiteSpace=wrap;rounded=0;" vertex="1" parent="1">
          <mxGeometry x="279" y="1131" width="205" height="30" as="geometry" />
        </mxCell>
        <mxCell id="1GPlpfpGMDa2duUX27Ni-78" value="Show&amp;nbsp;&lt;span style=&quot;background-color: initial;&quot;&gt;confirmation for Post Creation&lt;/span&gt;" style="text;html=1;align=center;verticalAlign=middle;whiteSpace=wrap;rounded=0;" vertex="1" parent="1">
          <mxGeometry x="9" y="1157" width="205" height="30" as="geometry" />
        </mxCell>
        <mxCell id="1GPlpfpGMDa2duUX27Ni-79" value="" style="rounded=0;whiteSpace=wrap;html=1;" vertex="1" parent="1">
          <mxGeometry x="227" y="1071" width="14" height="137" as="geometry" />
        </mxCell>
        <mxCell id="1GPlpfpGMDa2duUX27Ni-80" value="" style="rounded=0;whiteSpace=wrap;html=1;" vertex="1" parent="1">
          <mxGeometry x="504" y="1091.88" width="14" height="95.12" as="geometry" />
        </mxCell>
      </root>
    </mxGraphModel>
  </diagram>
</mxfile>
